<?xml version="1.0" standalone="no"?>
<!DOCTYPE svg PUBLIC "-//W3C//DTD SVG 1.1//EN" "http://www.w3.org/Graphics/SVG/1.1/DTD/svg11.dtd" >
<svg xmlns="http://www.w3.org/2000/svg" xmlns:xlink="http://www.w3.org/1999/xlink" version="1.1">
<metadata>
Created by FontForge 20161003 at Sat May 11 07:14:00 2019
 By www-data
Copyright Mustafa Jabbar, Ananda Computers, 188 Motijheel Circular Road, Dhaka-1000, Bangladesh. Phone +88027194002, +88027194527. e-mail: mustafajajabbar@gmail.com. website: www.bijoyekushe.net
</metadata>
<defs>
<font id="KarnaphuliMJBold" horiz-adv-x="0" >
  <font-face 
    font-family="KarnaphuliMJ"
    font-weight="700"
    font-stretch="normal"
    units-per-em="1178"
    panose-1="0 0 0 0 0 0 0 0 0 0"
    ascent="942"
    descent="-236"
    x-height="34"
    cap-height="627"
    bbox="-836 -466 1166 1060"
    underline-thickness="20"
    underline-position="-143"
    unicode-range="U+0020-2122"
  />
<missing-glyph horiz-adv-x="589" 
d="M74 0v703h441v-703h-441zM147 74h295v555h-295v-555z" />
    <glyph glyph-name=".notdef" horiz-adv-x="589" 
d="M74 0v703h441v-703h-441zM147 74h295v555h-295v-555z" />
    <glyph glyph-name=".null" 
 />
    <glyph glyph-name="nonmarkingreturn" horiz-adv-x="269" 
 />
    <glyph glyph-name="space" unicode=" " horiz-adv-x="269" 
 />
    <glyph glyph-name="exclam" unicode="!" horiz-adv-x="387" 
d="M215 87v527h83v-527h-83zM263 -96q-33 0 -57 25.5t-24 58.5q0 34 25 58.5t59 24.5q32 0 54.5 -25.5t22.5 -58.5q0 -83 -80 -83z" />
    <glyph glyph-name="quotedbl" unicode="&#x22;" horiz-adv-x="452" 
d="M287 416v270h83v-270h-83zM92 413v273h83v-273h-83z" />
    <glyph glyph-name="numbersign" unicode="#" horiz-adv-x="651" 
d="M56 446v83h599v-83h-599zM437 -59l-83 15l128 820l82 -13zM196 -59l-83 15l128 820l82 -13zM10 202v84h612v-84h-612z" />
    <glyph glyph-name="dollar" unicode="$" horiz-adv-x="499" 
d="M259 18q-38 0 -80 19.5t-62 49.5q-14 21 -13 106l1 115l-110 2v81h110q2 36 2 53q0 42 -5 86q-18 34 -66 46l43 67q63 -24 88.5 -59.5t24.5 -101.5l-2 -90h82v-82h-84v-176q39 -31 65 -31q56 0 97 43.5t41 99.5q0 59 -67 85l76 59q75 -61 75 -146q0 -86 -65.5 -156
t-150.5 -70z" />
    <glyph glyph-name="percent" unicode="%" horiz-adv-x="656" 
d="M176 363q-43 0 -68 34q-23 31 -23 75q0 73 43 133q48 66 119 66q26 0 58 -27t32 -52q0 -86 -37 -151q-44 -78 -124 -78zM184 -52l-65 33l390 659l63 -32zM466 -33q-44 0 -69 33q-22 30 -22 75q0 72 41 131q46 66 116 66q90 0 90 -131q0 -63 -46 -117q-48 -57 -110 -57z
M237 595q-38 0 -62 -49q-19 -41 -19 -83q0 -31 16 -31q40 0 66 43q22 37 22 80q0 40 -23 40zM526 199q-38 0 -61 -50q-19 -40 -19 -82q0 -31 15 -31q40 0 66 43q23 38 23 80q0 40 -24 40z" />
    <glyph glyph-name="ampersand" unicode="&#x26;" 
d="M-60 -316l-227 168l51 67l226 -168z" />
    <glyph glyph-name="quotesingle" unicode="'" horiz-adv-x="199" 
d="M61 416v278h84v-278h-84z" />
    <glyph glyph-name="parenleft" unicode="(" horiz-adv-x="435" 
d="M169 291q0 -177 58 -305q60 -131 194 -244l-53 -62q-283 223 -283 575q0 192 66 326q69 139 224 246l50 -67q-256 -189 -256 -469z" />
    <glyph glyph-name="parenright" unicode=")" horiz-adv-x="433" 
d="M307 -63q-54 -124 -210 -257l-54 63q161 110 221 320q31 104 31 198q0 130 -60 274q-49 118 -195 225l50 67q112 -82 166 -158q55 -79 89 -210q26 -102 33 -209q-32 -224 -71 -313z" />
    <glyph glyph-name="asterisk" unicode="*" horiz-adv-x="651" 
d="M421 536l163 -100l-44 -70l-166 101v-191h-86v197l-164 -92l-39 74l160 96l-164 97l44 70l167 -99v183h84l1 -188l169 86l39 -73z" />
    <glyph glyph-name="plus" unicode="+" horiz-adv-x="734" 
d="M427 215v-282h-93v282h-287v94h289l-1 281h92v-280l278 -1v-94h-278z" />
    <glyph glyph-name="comma" unicode="," horiz-adv-x="326" 
d="M230 -217q-24 -27 -104 -87l-51 68q34 22 87 66q28 31 31 87q-15 44 -79 44q-11 0 -24 -1l27 82q47 2 69 -4q32 -8 58 -37q35 -42 35 -99q0 -64 -49 -119z" />
    <glyph glyph-name="hyphen" unicode="-" horiz-adv-x="434" 
d="M56 175v83h333v-83h-333z" />
    <glyph glyph-name="hyphen" unicode="&#x2010;" horiz-adv-x="434" 
d="M56 175v83h333v-83h-333z" />
    <glyph glyph-name="period" unicode="." horiz-adv-x="326" 
d="M167 -110q-33 0 -57.5 24.5t-24.5 57.5q0 34 24 59t58 25q36 0 60 -24t24 -60q0 -33 -25.5 -57.5t-58.5 -24.5z" />
    <glyph glyph-name="slash" unicode="/" horiz-adv-x="363" 
d="M78 -207l-80 27l322 997l80 -27z" />
    <glyph glyph-name="zero" unicode="0" horiz-adv-x="652" 
d="M309 4q-99 0 -159.5 65t-60.5 165q0 109 69 181t178 72q97 0 157.5 -62t60.5 -160q0 -112 -66 -185q-68 -76 -179 -76zM334 402q-73 0 -118 -46.5t-45 -119.5q0 -64 38 -106t101 -42q76 0 121 52q42 49 42 126q0 63 -38 99.5t-101 36.5z" />
    <glyph glyph-name="one" unicode="1" horiz-adv-x="570" 
d="M253 -78q-54 0 -98 25q-53 30 -53 81q0 95 160 128l18 -80q-37 -8 -51 -13q-31 -12 -41 -31q19 -22 51 -22q71 0 117 47t46 118q0 92 -74 154q-38 31 -144 118q-82 68 -82 137q0 24 34 67l65 -42q-19 -21 -19 -33q0 -23 75 -79q113 -84 158 -141q70 -88 70 -197
q0 -96 -68 -166.5t-164 -70.5z" />
    <glyph glyph-name="two" unicode="2" horiz-adv-x="625" 
d="M586 -158q-170 159 -499 365l-21 103q94 -56 123 -69q60 -27 112 -27q138 0 138 99q0 57 -55 99q-9 4 -122 69q-78 45 -103 102l66 59q27 -63 103 -104q107 -58 130 -78q66 -58 66 -161q0 -64 -51 -111q-47 -43 -113 -53q118 -82 283 -232z" />
    <glyph glyph-name="three" unicode="3" horiz-adv-x="691" 
d="M384 -22q-4 0 -75 25q-188 64 -282 473l78 20q101 -432 304 -432q86 0 131 82q36 65 36 158q0 71 -49 137q-53 71 -119 71q-95 0 -95 -78q0 -29 28 -43l-26 -79q-90 28 -90 125q0 69 47.5 113.5t117.5 44.5q122 0 199 -100q71 -92 71 -218q0 -132 -71 -213
q-75 -86 -205 -86z" />
    <glyph glyph-name="four" unicode="4" horiz-adv-x="646" 
d="M302 -47q-88 0 -143 49q-59 51 -59 138q0 53 41 101q24 28 83 72q-64 23 -103 70q-44 51 -44 116q0 77 68 131q63 49 142 49q91 0 150 -43q66 -49 66 -138q0 -56 -40 -105q-27 -33 -87 -76q150 -63 150 -188q0 -83 -73 -133q-64 -43 -151 -43zM279 600q-43 0 -77 -28
q-37 -30 -37 -72q0 -52 45 -87q41 -33 94 -34q54 34 72 51q41 36 41 74q0 49 -47 75q-38 21 -91 21zM304 265q-44 -20 -77 -52q-41 -40 -41 -80q0 -46 42 -72q36 -22 85 -22t85 22q42 26 42 72q0 76 -136 132z" />
    <glyph glyph-name="five" unicode="5" horiz-adv-x="652" 
d="M401 547q9 -61 23 -79q11 -14 60 -44q29 15 70 33l32 -77q-101 -40 -144 -76q-66 -56 -66 -144q0 -82 102 -171l-54 -64l-33 28q-35 -6 -50 -6q-110 0 -191.5 83.5t-81.5 193.5q0 156 102 262q73 75 240 157l37 -72zM350 429q-5 9 -23 76q-61 -38 -93 -71
q-82 -85 -82 -219q0 -72 58 -127q51 -49 112 -55q-33 56 -33 130q0 131 117 214q-44 32 -56 52z" />
    <glyph glyph-name="six" unicode="6" horiz-adv-x="629" 
d="M390 -41q-107 0 -210 107q-88 91 -125 204q-15 42 -41 174l81 15q11 -66 15 -82q9 -46 23 -79q38 -90 94 -161q76 -95 149 -95q70 0 115 55q43 52 43 123q0 90 -25 118q-16 -51 -67.5 -83.5t-106.5 -32.5q-117 0 -125 190l-5 111q-18 15 -58 24l7 75q101 1 128 -71
q10 -25 14 -128q4 -91 24 -113l24 -8q37 6 58 37q6 8 36 59q29 39 60 39q63 0 95 -82q24 -60 24 -134q0 -105 -60 -181q-64 -81 -167 -81z" />
    <glyph glyph-name="seven" unicode="7" horiz-adv-x="658" 
d="M544 -58q-74 0 -74 250v54v15l-190 -7q-58 -2 -103.5 47.5t-45.5 108.5q0 85 65 151.5t150 66.5q214 0 214 -411q0 -25 -1 -73.5t-1 -73.5q0 -19 3 -34l16 23l56 -70q-57 -47 -89 -47zM446 470q-54 76 -100 76t-88.5 -44.5t-42.5 -91.5q0 -37 36 -58q30 -17 70 -17
q23 0 146 8q-6 55 -21 127z" />
    <glyph glyph-name="eight" unicode="8" horiz-adv-x="674" 
d="M617 319q-20 -4 -82 -4q-69 0 -98 -25l2 -65q3 -93 -67 -175q-72 -86 -164 -86q-70 0 -118 107l1 458q0 31 -46 66l76 38q59 -44 59 -154q0 -20 -2 -51q-2 -40 -3 -52q55 28 107 28q69 0 103 -39q41 30 76 35h89q61 0 102 43l41 -74q-29 -40 -76 -50zM276 322
q-50 0 -101 -42v-203q0 -10 12 -19.5t22 -9.5q53 0 99 61t46 117q0 96 -78 96z" />
    <glyph glyph-name="nine" unicode="9" horiz-adv-x="627" 
d="M504 39q-70 -56 -191 -78l13 85l30 8q4 26 4 58q0 53 -32 91t-84 38q-31 0 -49 -27.5t-18 -59.5q0 -62 78 -60l-33 -78q-61 0 -96 46q-31 41 -31 95q0 77 48.5 122.5t125.5 45.5q82 0 131 -78q42 -68 42 -153q25 16 44.5 50.5t19.5 64.5q0 91 -115 139q-58 23 -223 89
q-127 51 -127 128q0 64 57 112l61 -62q-38 -11 -38 -28q0 -44 115 -89q191 -74 227 -95q126 -75 126 -193q0 -103 -85 -171z" />
    <glyph glyph-name="colon" unicode=":" horiz-adv-x="362" 
d="M184 355q-33 0 -57.5 24.5t-24.5 57.5t24.5 58t57.5 25q36 0 60 -23.5t24 -59.5q0 -33 -25.5 -57.5t-58.5 -24.5zM184 -98q-33 0 -57.5 24.5t-24.5 57.5q0 34 24 59t58 25q36 0 60 -24t24 -60q0 -33 -25.5 -57.5t-58.5 -24.5z" />
    <glyph glyph-name="semicolon" unicode=";" horiz-adv-x="361" 
d="M236 -205q-31 -40 -105 -94l-50 66q116 83 116 153q0 27 -23 36l-15 -3l-47 -32l-48 72q82 48 107 48q50 0 79.5 -36t29.5 -86q0 -67 -44 -124z" />
    <glyph glyph-name="less" unicode="&#x3c;" horiz-adv-x="735" 
d="M185 263l540 -255l-36 -81l-646 296v77l650 301l36 -83z" />
    <glyph glyph-name="equal" unicode="=" horiz-adv-x="734" 
d="M47 336v101h659v-101h-659zM47 90v101h659v-101h-659z" />
    <glyph glyph-name="greater" unicode="&#x3e;" horiz-adv-x="735" 
d="M86 -73l-36 81l540 255l-544 255l36 83l649 -301v-77z" />
    <glyph glyph-name="question" unicode="?" horiz-adv-x="489" 
d="M421 325q-25 -32 -87 -87q-43 -38 -43 -52q0 -29 37 -52l-51 -66q-66 46 -66 119q0 58 48 100l84 72q42 43 42 92q0 31 -24 53t-55 22q-16 0 -36 -7q-25 -9 -25 -21q0 -17 47 -26l-13 -83q-117 18 -117 114q0 48 49 79q43 27 93 27q67 0 116.5 -46t49.5 -113
q0 -62 -49 -125z" />
    <glyph glyph-name="at" unicode="@" horiz-adv-x="1064" 
d="M332 248l1 18q26 -3 58 -3q100 0 145 15q73 26 73 104q0 27 -20 45t-47 18q-51 0 -81 -27q-20 -16 -59 -83l-68 51q58 82 90 106q48 37 125 37q59 0 101.5 -43t42.5 -102q0 -83 -46 -135.5t-128 -61.5q33 -22 102 -72q78 -56 131 -56t97 102q38 89 38 156q0 119 -78 213
q-83 99 -200 99q-219 0 -344 -115q-129 -120 -129 -337q0 -162 124 -266q117 -98 282 -98q106 0 240 80l44 -70q-147 -93 -304 -93q-186 0 -325 125q-145 129 -145 313q0 256 147.5 400t403.5 144q155 0 264 -122q105 -117 105 -274q0 -98 -53 -206q-65 -132 -155 -132
q-85 0 -157 49q-34 24 -132 92q-76 52 -150 66l-1 71z" />
    <glyph glyph-name="A" unicode="A" horiz-adv-x="782" 
d="M735 566v-643h-82v128q-15 34 -95 142q-67 -86 -151 -86q-242 0 -361 422l81 26q32 -136 87 -229q79 -134 188 -134q50 0 81 38q29 35 29 86q0 53 -34 96.5t-86 43.5q-43 0 -64 -79l-79 16q29 146 143 146q83 0 144 -66t61 -150q0 -18 -3 -34l55 -82v359h-673v85h840v-85
h-81z" />
    <glyph glyph-name="B" unicode="B" horiz-adv-x="610" 
d="M-22 567v84h440q11 27 11 39q0 16 -24 16q-9 0 -27.5 -2t-27.5 -2q-36 0 -108 -4.5t-108 -4.5q-172 0 -172 107q0 36 22 96l80 -28q-19 -50 -19 -64q0 -31 41 -31q9 0 26.5 1.5t26.5 1.5q36 0 108.5 4.5t108.5 4.5q156 0 156 -87q0 -18 -6 -47h137v-84h-665zM577 -138
q-263 244 -494 321l-50 102q162 -49 209 -49q63 0 109 27q56 32 56 92q0 47 -30 81.5t-76 34.5q-94 0 -130 -110l-69 41q18 68 74 111t118 43q87 0 142 -59.5t55 -146.5q0 -137 -162 -183q107 -61 299 -247z" />
    <glyph glyph-name="C" unicode="C" horiz-adv-x="668" 
d="M-25 563v88h542q-6 75 -121 75q-33 0 -102.5 -19.5t-104.5 -19.5q-86 0 -120 16q-54 26 -54 103q0 29 3 70h74q-3 -26 -3 -56q0 -29 30 -44q2 -2 17 -2q52 0 154.5 13.5t154.5 13.5q147 0 147 -150h118v-88h-735zM512 166q0 -105 56 -221l-76 -37q-64 146 -64 294
q0 59 39 149q-18 -22 -43 -52q-74 -91 -104 -119q-63 -60 -109 -60q-95 0 -146 143l81 29q25 -87 65 -87q36 0 109 108q-1 55 -32 102q-35 54 -87 54q-56 0 -57 -49l13 -41l-89 36q0 63 45 98q41 32 96 32q67 0 115 -47q44 -42 62 -110q84 106 190 106l28 -62
q-92 -136 -92 -266z" />
    <glyph glyph-name="D" unicode="D" horiz-adv-x="678" 
d="M457 707q-2 -1 -5 -1h-53q-25 0 -73.5 -4.5t-73.5 -4.5q-113 0 -139 6q-80 19 -80 100q0 28 26 97l75 -29l-18 -68q6 -30 48 -30q14 0 41.5 3.5t41.5 3.5q32 0 94.5 5t94.5 5q147 0 154 -139h131v-85h-365v-212q0 -42 28 -42q20 0 68 66q32 46 56 87q64 -12 100 -88
q29 -60 29 -124q0 -77 -47 -150q-50 -78 -122 -94q-32 -7 -88 -7q-42 0 -85 28q-121 75 -180 222q-39 96 -73 297l86 -30q16 -136 79 -268q79 -164 179 -164q84 0 128 58q40 52 40 138q0 28 -24 58l-58 -68q-47 -46 -92 -46q-114 0 -114 204q0 24 2.5 69.5t3.5 65.5h-307v85
h542q2 31 -8.5 43t-41.5 13z" />
    <glyph glyph-name="E" unicode="E" horiz-adv-x="735" 
d="M420 565v-204q0 -33 13 -33q58 0 142 147q122 -87 122 -255q0 -102 -88 -168q-79 -59 -185 -59q-171 0 -286 193q-86 144 -119 355l86 -35q14 -99 74 -208q-36 122 -38 228l80 -34q28 -187 54 -257q56 -147 168 -147q72 0 118.5 49.5t46.5 122.5q0 53 -28 82
q-76 -103 -156 -103q-92 0 -92 209q0 41 4 117h-362v86h576q-6 0 -6 19q0 57 -89 57q-23 0 -80.5 -23.5t-83.5 -23.5q-104 0 -140 10q-79 23 -79 102q0 28 26 97l75 -29l-18 -68q6 -33 57 -33q12 0 37 2t37 2q30 0 93.5 24t95.5 24q72 0 113 -43.5t41 -116.5h134v-86h-343z
" />
    <glyph glyph-name="F" unicode="F" horiz-adv-x="774" 
d="M684 570v-644h-86q0 26 1 77t1 77q0 63 -19 103.5t-68 81.5v-339h-86v156q-62 117 -271 214l-53 82q128 91 267 159l-24 30q-16 17 -32 23q-29 -40 -74 -65q-48 -28 -94 -28q-42 0 -77.5 28.5t-35.5 70.5q0 54 55 80l61 -48q-25 -16 -30 -28l4 -11l19 -6q37 1 80 39
q8 6 75 76q67 -19 132 -102v176h81v-388q54 -38 88 -74v461h85v-120h115v-81h-114zM429 471q-105 -45 -192 -110q71 -44 100 -65q56 -38 92 -77v252z" />
    <glyph glyph-name="G" unicode="G" horiz-adv-x="697" 
d="M579 -76q0 94 -42 132t-136 38q-22 0 -65.5 -2t-65.5 -2q-114 0 -166 53t-52 167q0 82 37 164l73 -39q-26 -93 -26 -149q0 -112 140 -112q21 0 62 3t62 3h81q46 0 91 -38l1 407q0 34 -39 34q-41 0 -114.5 -72t-73.5 -113q0 -14 12 -14q8 0 31 7l36 -62q-37 -27 -70 -27
q-39 0 -65 28t-26 67q0 84 95.5 177.5t179.5 93.5q47 0 82.5 -31.5t35.5 -78.5v-634h-78z" />
    <glyph glyph-name="H" unicode="H" horiz-adv-x="805" 
d="M660 417v-484h-79q0 96 -41 133t-137 37q-22 0 -64.5 -2t-64.5 -2q-115 0 -167 53t-52 168q0 82 37 164l73 -40q-27 -92 -27 -148q0 -112 140 -112q21 0 62 2.5t62 2.5h82q46 0 92 -38v407q0 15 -12 25t-27 10q-42 0 -114.5 -71.5t-73.5 -112.5l2 -7l7 -4l33 10l37 -69
q-39 -29 -74 -29q-40 0 -64 29.5t-24 69.5q0 82 96.5 175.5t179.5 93.5q123 0 119 -157q31 21 31 65q0 70 -65 84q-66 8 -134 17q-81 22 -81 118q0 38 32 74q16 17 63 53l47 -69q-58 -34 -58 -55q0 -49 61 -57q125 -16 135 -20q77 -33 77 -147q0 -113 -109 -167z" />
    <glyph glyph-name="I" unicode="I" horiz-adv-x="703" 
d="M481 6q-178 0 -297 186q-61 94 -150 345l81 27q69 -212 123 -304q100 -171 230 -171q116 0 116 124q0 29 -47 83q-35 -10 -83 -15l-17 85q143 -1 143 109q0 37 -35 57q-29 16 -69 16q-39 0 -93 -30q-59 -32 -59 -62q0 -34 58 -60l-33 -76q-108 47 -108 136q0 76 86 127
q74 44 155 44q181 0 181 -167q0 -82 -53 -129q58 -62 58 -135q0 -80 -53.5 -135t-133.5 -55z" />
    <glyph glyph-name="J" unicode="J" horiz-adv-x="799" 
d="M624 333q47 -51 47 -126q0 -81 -54 -135.5t-134 -54.5q-177 0 -297 186q-60 92 -149 345l81 27q69 -212 123 -304q100 -171 230 -171q115 0 115 123q0 30 -46 84q-36 -10 -84 -15l-16 85q143 -2 143 110q0 71 -116 71q-34 0 -87 -32t-53 -59q0 -34 58 -60l-34 -76
q-107 48 -107 136q0 76 86 127q74 44 155 44q77 0 124 -38q51 -41 51 -117q0 -24 -5 -44q43 19 43 94q0 100 -96 121q-100 6 -195 16q-115 12 -115 114q0 63 101 134l46 -65q-64 -38 -64 -65q0 -44 96 -52q160 -13 197 -27q112 -41 112 -176q0 -72 -43 -126t-113 -74z" />
    <glyph glyph-name="K" unicode="K" horiz-adv-x="743" 
d="M481 566v-39q107 -16 172 -76q72 -66 72 -170q0 -80 -73 -127l-35 -7q-48 0 -107 59l43 58q39 -37 55 -37q17 0 28 23q9 18 9 37q0 63 -52 110q-50 44 -114 48l2 -522h-79v120q-34 78 -127 150q-100 78 -185 70l-39 83q170 134 346 184v36h-423v85h803v-85h-296zM396 442
q-46 -11 -115.5 -44t-107.5 -61q146 -43 223 -151v256z" />
    <glyph glyph-name="L" unicode="L" horiz-adv-x="595" 
d="M552 569v-643h-84v112q-37 69 -134 141t-181 87l-32 79q83 11 141 42q74 39 74 92q0 26 -21 49q-62 -115 -154 -115q-46 0 -81 28q-38 30 -38 75q0 49 36 91l68 -39q-23 -28 -23 -47q0 -23 39 -23t71 49q8 14 46 100q62 -26 98 -71q39 -49 39 -105t-40 -103
q-36 -43 -91 -63q85 -40 183 -133v591h84l-2 -112h72v-82h-70z" />
    <glyph glyph-name="M" unicode="M" horiz-adv-x="615" 
d="M568 569v-639h-84v453q-104 190 -216 190q-43 0 -82 -30.5t-39 -73.5q0 -11 4 -11q16 0 52.5 18.5t56.5 18.5q46 0 80 -32t34 -77t-55 -105q-10 -11 -92 -87l-64 52q134 128 134 147q0 24 -30 24q-12 0 -56 -21.5t-65 -21.5q-37 0 -59 27t-22 65q0 81 62 134
q59 51 141 51q75 0 128 -33q45 -29 90 -95v228h82v-100h84v-82h-84z" />
    <glyph glyph-name="N" unicode="N" horiz-adv-x="557" 
d="M530 566v-643h-101v93q0 59 -112 127q-96 59 -180 76l-26 61l87 91q-67 -2 -107 38t-40 96q0 24 16 61h-94v85h613v-85h-56zM430 569h-267q-27 -37 -27 -66q0 -27 36 -42q27 -11 58 -11q12 0 53 4l46 45l56 -61q-81 -75 -160 -156q127 -48 205 -128v415z" />
    <glyph glyph-name="O" unicode="O" horiz-adv-x="614" 
d="M374 -73q-260 0 -359 522l86 17q24 -167 74 -280q78 -175 202 -175q62 0 96.5 36.5t34.5 99.5q0 49 -34 96q-19 -41 -56 -68.5t-81 -27.5q-150 0 -150 199q0 29 3 66q-51 43 -127 149l69 53q38 -82 78 -125q20 52 69 84.5t105 32.5t97 -30q47 -33 47 -87q0 -63 -58 -102
q-50 -33 -116 -33q-50 0 -85 14q0 -8 -1.5 -28t-1.5 -31q0 -80 63 -80q19 0 51 20q33 41 47 93l63 11q62 -66 81 -108q21 -47 21 -133q0 -87 -67 -139q-61 -46 -151 -46zM384 527q-37 0 -69.5 -25t-35.5 -61q28 -13 67 -13q87 0 98 61q-11 38 -60 38z" />
    <glyph glyph-name="P" unicode="P" horiz-adv-x="531" 
d="M180 565v-63q51 -68 129 -90q29 -9 122 -32q59 -25 59 -99q0 -108 -110 -230q-112 -125 -223 -125l-62 52v588h-125v85h592v-85zM306 334q-96 39 -130 59v-381q59 10 145 103q94 101 94 163q0 11 -109 56z" />
    <glyph glyph-name="Q" unicode="Q" horiz-adv-x="664" 
d="M137 564v-14q29 -46 68 -60q18 -6 64 -7q37 0 54 -15q45 4 63 4q66 0 109 -57q38 -52 38 -120t-61 -129q-50 -50 -123 -79q80 -31 154 -88q48 -37 133 -118l-57 -60q-210 240 -484 238l7 83q17 0 52 -1.5t53 -1.5q79 0 156 47q85 51 85 123q0 83 -68 81l-19 -1
q-10 -76 -65 -134q-59 -62 -133 -62q-38 0 -73.5 28.5t-35.5 66.5v276h-82v87h717v-87h-552zM246 409l-52 6q-33 9 -57 29v-146q12 -21 28 -21q36 0 74 41t38 77q0 8 -31 14z" />
    <glyph glyph-name="R" unicode="R" horiz-adv-x="771" 
d="M400 566q27 -57 72 -79q39 -19 107 -19q4 0 108 4l38 -51q-65 -156 -65 -290q0 -51 40 -190l-80 -25q-43 147 -43 265q0 105 44 206h-26q-107 0 -158 22q-68 28 -112 111q-68 -40 -68 -128q0 -27 17.5 -48.5t43.5 -21.5q47 0 70 43l57 12q46 -39 65 -67q26 -39 26 -88
q0 -80 -57.5 -137.5t-137.5 -57.5q-156 0 -238 178q-62 135 -62 318h84v-23q0 -140 44 -246q60 -142 170 -142q45 0 80 31.5t35 76.5q0 37 -26 62q-48 -43 -113 -43q-61 0 -101.5 45t-40.5 107q0 111 75 175h-275v85h824v-85h-397z" />
    <glyph glyph-name="S" unicode="S" horiz-adv-x="725" 
d="M653 569v-572h-90l-4 39q-26 38 -37 50q-22 25 -48 41l1 -199h-82v118q-34 78 -126 149.5t-167 71.5q-10 0 -19 -1l-39 83q149 130 346 184v36h-421v82h508v-389q36 -23 89 -83v587h89v-115h105v-82h-105zM387 446q-48 -12 -116 -44t-107 -62q145 -43 223 -151v257z" />
    <glyph glyph-name="T" unicode="T" horiz-adv-x="1005" 
d="M843 54q-100 0 -192 107v-237h-77q0 99 -47 136q-40 32 -140 32q-17 0 -52 -1t-52 -1q-122 0 -179 52t-57 173q0 74 36 157l79 -18q-35 -112 -35 -168q0 -120 164 -120q26 0 79 3.5t79 3.5q67 0 120 -35v411q0 9 -8 21t-16 12q-55 0 -128 -62.5t-73 -115.5q0 -24 18 -24
q23 0 42 28l58 -63q-54 -48 -100 -48q-43 0 -71.5 29.5t-28.5 72.5q0 77 94 172.5t171 95.5q80 0 107 -63q16 -38 18 -130q51 52 81 73q51 35 102 35q60 0 101 -42.5t41 -103.5q0 -67 -51 -115q55 -64 55 -126q0 -141 -138 -141zM831 283q-53 0 -93 -12l-4 80q94 13 110 18
q49 18 49 67q0 24 -17.5 42.5t-41.5 18.5q-64 0 -182 -146v-80q115 -132 196 -132q51 0 51 57q0 30 -19.5 58.5t-48.5 28.5z" />
    <glyph glyph-name="U" unicode="U" horiz-adv-x="520" 
d="M163 566v-411q0 -58 27 -58q76 0 136 89q55 82 55 165q0 35 -28 35q-16 0 -51 -23l-50 57q56 47 104 47q49 0 78 -35.5t29 -85.5q0 -113 -78 -219q-85 -114 -194 -114q-55 0 -87 43q-29 38 -29 95v415h-110v85h426q4 16 4 23q0 23 -21 23q-14 0 -42 -7t-42 -7
q-33 0 -98 -6t-98 -6q-82 0 -117 20q-49 28 -47 105q1 47 49 105l71 -48q-36 -44 -36 -72q0 -30 52 -30q47 0 141 11t141 11q78 0 104 -29q20 -23 29 -93h66v-85h-384z" />
    <glyph glyph-name="V" unicode="V" horiz-adv-x="527" 
d="M350 566q69 -107 94 -167q37 -90 37 -189q0 -102 -60 -187q-67 -95 -165 -95q-92 0 -150 58t-58 151q0 33 15 62q195 60 195 295q0 41 -11 70l-280 2v85h223q-19 18 -39 36q-25 32 -25 81q0 79 77 179l64 -47q-56 -76 -56 -115q0 -48 27 -78q3 -3 69 -56h246v-85h-203z
M345 419q-9 -94 -66 -173q-59 -82 -147 -109q2 -126 121 -126q68 0 111 78q38 68 38 145q0 93 -57 185z" />
    <glyph glyph-name="W" unicode="W" horiz-adv-x="681" 
d="M358 569v-239q0 -18 15 -18q30 0 90 58q47 47 74 87q98 -67 98 -215q0 -101 -72.5 -169t-174.5 -68q-294 0 -341 530h83q25 -194 64 -289q67 -160 198 -160q69 0 118.5 50.5t49.5 119.5q0 42 -23 80q-32 -43 -77 -72q-52 -34 -99 -34q-35 0 -60.5 29.5t-25.5 64.5v245
h-306v82h736v-82h-347z" />
    <glyph glyph-name="X" unicode="X" horiz-adv-x="531" 
d="M188 566v-500q0 -58 27 -58q74 0 135 101q57 94 57 176q0 38 -28 38q-17 0 -52 -23l-50 57q64 51 107 51q45 0 76 -42q29 -38 29 -84q0 -116 -76 -230q-85 -127 -196 -127q-55 0 -87 43q-29 38 -29 95v503h-130v85h591v-85h-374z" />
    <glyph glyph-name="Y" unicode="Y" horiz-adv-x="589" 
d="M542 570v-643h-83v445q0 52 -49 120q-52 73 -99 73q-62 0 -99.5 -34.5t-37.5 -95.5q0 -38 21 -69q23 -34 60 -34q9 0 37 7l-29 -93l-19 -2q-65 0 -111 64q-43 58 -43 125q0 87 53 150q56 68 141 68q107 0 178 -102v231h80v-129h80v-81h-80z" />
    <glyph glyph-name="Z" unicode="Z" horiz-adv-x="708" 
d="M-33 568v83h775v-83h-775zM423 -31q-142 0 -219 110q-37 53 -98 230q-33 94 -68 198l88 19q103 -470 283 -470q65 0 117 40q57 43 57 106q0 251 -172 251q-58 -23 -58 -71q0 -17 19 -48l-76 -42q-33 63 -33 107q0 69 55 104q47 31 118 31q107 0 172 -97q56 -84 56 -194
q0 -117 -61 -192q-66 -82 -180 -82z" />
    <glyph glyph-name="bracketleft" unicode="[" horiz-adv-x="237" 
d="M97 712v-771h71v-83h-155l-2 931h174v-77h-88z" />
    <glyph glyph-name="backslash" unicode="\" horiz-adv-x="477" 
d="M379 -51q-35 0 -61 41q-23 37 -23 73l1 464q-6 -1 -14 -1q-56 0 -56 65q0 54 60 54q35 0 62 -41q25 -37 25 -73l-1 -464q6 1 13 1q55 0 55 -69q0 -50 -61 -50zM287 -33q-24 -31 -57 -31q-37 0 -63 40q-23 36 -23 74l1 474q-6 -2 -14 -2q-57 0 -57 61q0 57 61 57
q39 0 65 -46q21 -39 21 -81l-3 -461q8 3 18 3q28 0 51 -31q5 -20 5 -32z" />
    <glyph glyph-name="bracketright" unicode="]" horiz-adv-x="265" 
d="M72 -141v85h65v762h-84v77h176v-924h-157z" />
    <glyph glyph-name="asciicircum" unicode="^" 
d="M-190 -62v45q-64 111 -191 172l-24 63q65 57 216 152v24h84v-456h-85zM-188 274q-58 -33 -106 -72q64 -35 106 -79v151z" />
    <glyph glyph-name="underscore" unicode="_" horiz-adv-x="622" 
d="M542 569v-643h-85l-1 99q-97 107 -145 146q-93 74 -190 74l-70 89q135 17 186 36q96 37 96 112q0 87 -119 87q-27 0 -66.5 -24t-39.5 -46q0 -9 6.5 -20t15.5 -11q4 0 24 14v-85l-35 -3q-90 -7 -90 113q0 67 76 110q64 36 136 36q77 0 126 -51t49 -129q0 -61 -40.5 -111.5
t-100.5 -70.5q103 -47 185 -136v611h83v-115h107v-82h-108z" />
    <glyph glyph-name="grave" unicode="`" horiz-adv-x="577" 
d="M159 566v-258q127 152 313 169l66 -49q-42 -73 -42 -185q0 -201 32 -309l-80 -14q-37 125 -37 347q0 74 11 112q-150 -29 -276 -251l-69 76l-1 362h-106v85h633v-85h-444z" />
    <glyph glyph-name="a" unicode="a" horiz-adv-x="541" 
d="M501 567v-643h-83v116q-77 120 -316 208l-42 62l133 108q-107 33 -107 122q0 49 34.5 84.5t82.5 35.5q60 0 104 -84l-68 -44q-15 38 -42 47q-28 -9 -29 -37l6 -16q37 -35 103 -54l145 81v98h145v-84h-66zM422 457q-133 -67 -233 -151q129 -64 233 -153v304z" />
    <glyph glyph-name="b" unicode="b" horiz-adv-x="580" 
d="M525 566v-645h-85v257q0 50 -53 121.5t-98 71.5q-63 0 -102 -34t-39 -96q0 -43 48 -90l-53 -63q-78 53 -78 151q0 88 53 151q57 67 143 67q113 0 178 -101v210h-470v85h641v-85h-85z" />
    <glyph glyph-name="c" unicode="c" horiz-adv-x="632" 
d="M580 569v-643h-83v408q0 31 -65 117q-70 -77 -236 -244l-60 57q51 53 51 90q0 26 -14 47.5t-39 21.5q-12 0 -64 -13l-53 54q16 75 88 126t144 51q158 0 248 -139v239h83l-1 -90h85v-82h-84zM278 561q-99 0 -140 -58q91 -7 120 -112q53 49 121 122q-64 48 -101 48z" />
    <glyph glyph-name="d" unicode="d" horiz-adv-x="762" 
d="M229 566q63 -46 107 -111v-55q-61 -55 -130 -110q126 -46 215 -149v406q92 2 127 -5q64 -11 114 -57q72 -65 72 -171q0 -44 -30.5 -76t-73.5 -32q-26 0 -73 20l42 81l31 -15q24 0 24 35q0 59 -46 96q-42 33 -103 36v-536h-78l-1 96q-102 163 -308 210l-45 58
q96 73 175 142q-43 56 -163 137h-112v85h819v-85h-563z" />
    <glyph glyph-name="e" unicode="e" horiz-adv-x="536" 
d="M479 566v-643h-80v117q-30 68 -119 143q-96 83 -166 83q-8 0 -22 -3l-50 82q165 128 352 184v37h-422v85h599v-85h-92zM393 444q-123 -37 -215 -107q55 -14 117.5 -56.5t97.5 -88.5v252z" />
    <glyph glyph-name="f" unicode="f" horiz-adv-x="722" 
d="M-26 569v82h776v-82h-776zM419 14q-259 0 -399 516l95 -37q41 -153 110 -253q95 -140 223 -140q62 0 105 54q41 50 41 113q0 54 -30 93q-71 -113 -173 -113q-77 0 -126 44.5t-49 121.5q0 46 28 80.5t74 34.5q31 0 103 -43l-25 -87q-47 43 -64 43q-28 0 -28 -40
q0 -63 82 -63q51 0 89 48q20 25 61 110q144 -98 144 -239q0 -115 -74 -181q-70 -62 -187 -62z" />
    <glyph glyph-name="g" unicode="g" horiz-adv-x="597" 
d="M538 566v-643h-81q0 26 2 79t2 79q0 78 -44 166q-50 99 -116 99q-63 0 -100 -34t-37 -96q0 -93 112 -115l-38 -72q-71 0 -117 63q-41 57 -41 122q0 174 171 215q-19 40 -72 63q-32 14 -120 33v41h-84v85h650v-85h-87zM456 565h-237q88 -42 125 -142q62 -24 112 -96v238z
" />
    <glyph glyph-name="h" unicode="h" horiz-adv-x="552" 
d="M511 566v-643h-87l-1 104q-46 74 -133 128q-82 50 -172 67l-65 81q69 72 183 158q-20 20 -73 56q-57 39 -76 44t-111 5v85h607v-85h-72zM424 568h-191q47 -35 65 -52q29 -27 53 -65q-111 -88 -177 -151q82 -26 136 -60t114 -98v426z" />
    <glyph glyph-name="i" unicode="i" horiz-adv-x="508" 
d="M467 566v-643h-76l-4 120q-30 68 -119 142q-98 81 -170 81q-7 0 -20 -3l-56 78q158 118 360 190v35h-411v85h570v-85h-74zM219 -25q-31 0 -53.5 22.5t-22.5 53.5t22.5 53.5t53.5 22.5t53.5 -22.5t22.5 -53.5t-22.5 -53.5t-53.5 -22.5zM381 445q-127 -40 -216 -107
q120 -30 216 -153v260z" />
    <glyph glyph-name="j" unicode="j" horiz-adv-x="648" 
d="M595 566l-1 -643h-85l-1 360q0 28 -35 78.5t-59 50.5q-45 0 -36 -97l-71 -14q0 55 -25.5 85.5t-65.5 30.5q-46 0 -73 -42q-23 -36 -23 -85q0 -43 37 -70.5t96 -27.5l-30 -82q-80 7 -133.5 58.5t-53.5 123.5q0 86 44 144q49 64 133 64q62 0 119 -54q27 47 73 47
q66 0 104 -54v127h-539v85h706v-85h-81z" />
    <glyph glyph-name="k" unicode="k" horiz-adv-x="670" 
d="M597 569v-643h-84v454q0 54 -48 115.5t-98 61.5q-53 0 -53 -121q0 -26 20.5 -44t46.5 -18q19 0 44 19l40 -73q-50 -35 -86 -35q-74 0 -119 67q-42 -77 -117 -77q-48 0 -96 51l44 68q20 -18 34 -27l18 -2q52 20 52 75q0 67 -46 102q-42 32 -110 32q-24 0 -61 -7v84
q85 2 79 2q71 0 112 -19q55 -26 79 -92q38 97 132 97q42 0 79 -32q22 -19 57 -66v223h81v-113h104v-82h-104z" />
    <glyph glyph-name="l" unicode="l" horiz-adv-x="555" 
d="M502 566v-643h-83l-1 88q-68 97 -122 140q-77 62 -171 64l-62 84q42 52 165 151q-69 48 -202 116h-56v85h616v-85h-84zM418 568h-219q84 -47 219 -165v165zM416 279q-33 45 -118 119q-70 -52 -116 -104q135 -22 234 -140v125z" />
    <glyph glyph-name="m" unicode="m" horiz-adv-x="658" 
d="M602 566v-643h-80v317q-18 39 -45 76q-37 53 -63 53q-29 0 -58.5 -51.5t-61.5 -101.5q-37 -61 -95 -61q-69 0 -157 150l75 41q48 -105 76 -105q20 0 48.5 40t28.5 62q0 87 -70 132q-45 28 -148 50v41h-81v85h711v-85h-80zM519 561h-302q85 -41 121 -138q37 30 78 30
q48 0 103 -67v175z" />
    <glyph glyph-name="n" unicode="n" horiz-adv-x="575" 
d="M-26 565v86h629v-86h-629zM584 -154q-219 241 -496 334l-37 97q136 -49 211 -49q61 0 110 37q54 40 54 99q0 46 -45 81q-42 32 -89 32q-38 0 -70 -21q-35 -23 -35 -60q0 -23 36 -50l-51 -69q-74 45 -74 124q0 68 66 115q61 44 131 44q83 0 148.5 -57t65.5 -139
q0 -142 -174 -206q198 -114 312 -257z" />
    <glyph glyph-name="o" unicode="o" horiz-adv-x="682" 
d="M344 568v-208q0 -33 15 -47l12 -3q26 2 84 72q41 50 71 97q60 -39 93 -104t33 -126q0 -119 -75 -190.5t-195 -71.5q-172 0 -269 207q-70 149 -84 365l80 -26q11 -170 73 -298q80 -165 214 -165q82 0 131 59q46 55 46 138q0 49 -36 86q-60 -67 -79 -84q-53 -46 -101 -46
q-103 0 -103 208q0 25 3 69q3 48 4 68h-291v83h738v-83h-364zM385 -217q-35 0 -58 23t-23 58t23 58t58 23t58 -23t23 -58t-23 -58t-58 -23z" />
    <glyph glyph-name="p" unicode="p" horiz-adv-x="531" 
d="M176 566v-500q0 -58 28 -58q72 0 134 102q56 92 56 175q0 38 -28 38q-17 0 -51 -23l-50 57q55 48 107 48q103 0 103 -148q0 -104 -80 -214q-86 -118 -186 -118q-58 0 -91 41q-30 38 -30 97v503h-114v85h581v-85h-379zM232 -278q-36 0 -62.5 27.5t-26.5 63.5t27.5 62
t63.5 26t62.5 -27.5t26.5 -63.5t-27.5 -62t-63.5 -26z" />
    <glyph glyph-name="q" unicode="q" horiz-adv-x="557" 
d="M499 566v-643h-88l-1 104q-88 140 -303 195l-63 81q77 83 179 158q-114 106 -220 106q-10 0 -31 -2v86h617v-85h-90zM232 -40q-31 0 -53.5 24t-22.5 55t24 53.5t55 22.5t53.5 -24t22.5 -55t-24 -53.5t-55 -22.5zM411 568h-187q68 -47 113 -114q-111 -94 -174 -154
q136 -42 248 -153v421z" />
    <glyph glyph-name="r" unicode="r" horiz-adv-x="467" 
d="M510 -75l-81 20q19 57 19 70q0 75 -107 133q-60 33 -207 110q-116 80 -116 197q0 90 66 147q63 53 154 53q73 0 126 -41q57 -45 57 -117q0 -54 -41.5 -92t-96.5 -38q-67 0 -111 52q-37 44 -51 114l81 22q5 -49 27 -77t55 -28q21 0 37 15.5t16 36.5q0 70 -118 70
q-51 0 -84.5 -34.5t-33.5 -85.5q0 -90 107 -146q3 -2 207 -102q116 -74 116 -189q0 -25 -21 -90z" />
    <glyph glyph-name="s" unicode="s" horiz-adv-x="392" 
d="M212 357q-67 0 -116.5 49.5t-49.5 116.5q0 59 39.5 95t98.5 36q70 0 118.5 -47.5t48.5 -116.5q0 -60 -39 -96.5t-100 -36.5zM322 -25l-300 300l67 67l298 -297zM193 560q-54 0 -54 -43q0 -28 22 -47t51 -19q50 0 50 42q0 29 -20 48t-49 19z" />
    <glyph glyph-name="t" unicode="t" horiz-adv-x="344" 
d="M185 310q-66 0 -104 44t-38 111q0 52 41.5 88t93.5 36q54 0 93.5 -41.5t39.5 -96.5q0 -54 -36 -96q-37 -45 -90 -45zM185 -21q-66 0 -104 44t-38 111q0 52 41 88t94 36q54 0 93.5 -41.5t39.5 -96.5q0 -54 -36 -96q-37 -45 -90 -45zM181 502q-54 0 -54 -62q0 -15 18 -27.5
t34 -12.5q19 0 32.5 16t13.5 36q0 19 -12.5 34.5t-31.5 15.5zM181 170q-54 0 -54 -61q0 -15 17.5 -27.5t33.5 -12.5q20 0 33.5 16t13.5 36q0 19 -12.5 34t-31.5 15z" />
    <glyph glyph-name="u" unicode="u" 
d="M-192 759l-30 -15h-17q-43 0 -43 49q0 60 55 60q43 0 52 -46q-2 -17 -17 -48zM-121 695q-43 -55 -102 -55q-74 0 -128 72q-41 55 -66 151q43 -10 75 -25q48 -121 113 -121q54 0 104 139q30 -25 50 -50q-11 -66 -46 -111z" />
    <glyph glyph-name="v" unicode="v" horiz-adv-x="194" 
d="M144 569v-643h-83v559q0 32 -47 82q-5 2 -14 2h-41v82h53q26 -10 41 -31l6 -9v140h84v-100h84v-82h-83z" />
    <glyph glyph-name="w" unicode="w" horiz-adv-x="232" 
d="M606 628q-189 182 -359 182q-64 0 -96 -18q-39 -23 -48 -81q24 -35 50 -60h108v-88h-95v-643h-84v643h-112v88h84l-44 58q28 184 234 184q114 0 228 -62q80 -44 192 -140z" />
    <glyph glyph-name="x" unicode="x" horiz-adv-x="197" 
d="M143 564v-643h-83v643h-99v87h101q-29 97 -134 134q-71 24 -197 24q-146 0 -160 -46q12 -2 28 -2q37 0 109 9.5t109 9.5q129 0 129 -97q0 -34 -36 -91l-80 29q34 31 41 56q-8 32 -68 32q-37 0 -109 -11.5t-109 -11.5q-100 0 -100 74q0 72 93 107q66 25 151 25
q167 0 259 -43q119 -56 164 -198h81v-87h-90z" />
    <glyph glyph-name="y" unicode="y" 
d="M53 -365q-64 88 -157 167q-70 -68 -148 -68q-46 0 -75 33t-29 79q0 49 43 82q39 29 90 29q26 0 83 -26q2 24 2 38q0 10 -2 20l53 45q29 -84 29 -130q0 -14 -2 -27q89 -68 180 -190zM-223 -126q-28 0 -44 -18l-4 -12q5 -26 41 -26l28 6l21 16l9 16q-28 18 -51 18z" />
    <glyph glyph-name="z" unicode="z" 
d="M-152 -390q-64 88 -157 167q-70 -68 -148 -68q-46 0 -75 32.5t-29 78.5q0 50 43 82q39 30 90 30q26 0 83 -27q2 22 2 36q0 11 -4 25l65 26q25 -59 25 -99q0 -15 -8 -42q88 -68 179 -190zM-428 -151q-28 0 -44 -18l-5 -13q5 -26 41 -26l29 7l20 16l9 15q-27 19 -50 19z
" />
    <glyph glyph-name="braceleft" unicode="{" horiz-adv-x="354" 
d="M200 717q-17 -20 -17 -89v-239q0 -67 -69 -131q71 -65 71 -212q0 -28 -3 -83t-3 -83q0 -53 21 -76q15 -16 81 -46l-35 -75q-85 37 -120 91.5t-35 147.5q0 30 3.5 89.5t3.5 89.5q0 47 -20 75q-14 20 -59 52l-1 62q44 30 61 55q23 33 23 79q0 15 -1.5 43t-1.5 42l-1 159
q0 73 43 112q16 13 114 62l35 -78q-76 -30 -90 -47z" />
    <glyph glyph-name="bar" unicode="|" horiz-adv-x="268" 
d="M165 -35v642l77 -78v-641z" />
    <glyph glyph-name="braceright" unicode="}" horiz-adv-x="387" 
d="M380 227q-81 -49 -81 -172q0 -20 2 -60.5t2 -60.5q0 -112 -24 -156q-29 -54 -126 -95l-34 75q56 27 97 75q6 46 6 78q0 29 -2 83.5t-2 79.5q0 63 11 100q15 48 56 84q-73 67 -73 228q0 32 3.5 94.5t3.5 94.5q0 33 -32 54q-14 9 -77 35l34 77q105 -47 127 -75
q29 -36 29 -135v-232q0 -38 24 -65q14 -15 57 -44z" />
    <glyph glyph-name="asciitilde" unicode="~" 
d="M126 -466l-175 146q-52 -24 -117 -24q-48 0 -82.5 33.5t-34.5 81.5q0 56 44 92q41 33 98 37l-9 24l77 30l35 -96l-47 -46q-31 7 -50 7q-24 0 -43 -11q-23 -14 -23 -36q0 -32 47 -32q62 0 113 49l221 -192z" />
    <glyph glyph-name="quotesinglbase" unicode="&#x201a;" 
d="M-76 -438l-175 146q-52 -24 -117 -24q-48 0 -82.5 33.5t-34.5 81.5q0 56 44 92q41 33 98 37l-9 24l77 30l35 -96l-47 -46q-31 7 -50 7q-24 0 -43 -11q-23 -14 -23 -36q0 -32 47 -32q62 0 113 49l221 -192z" />
    <glyph glyph-name="florin" unicode="&#x192;" horiz-adv-x="172" 
d="M-42 566v85h244v-85h-244zM63 -88q-31 146 -31 342q0 33 1 69l-124 -23l-16 79q104 26 186 36l41 -43q-6 -113 -6 -154v-109q0 -71 28 -180z" />
    <glyph glyph-name="quotedblbase" unicode="&#x201e;" 
d="M-6 -430l-343 241l192 141l27 83l70 -132l-123 -87q72 -52 207 -155z" />
    <glyph glyph-name="ellipsis" unicode="&#x2026;" 
d="M-195 -414l-343 241l192 141l27 83l70 -131l-123 -88q71 -52 207 -155z" />
    <glyph glyph-name="dagger" unicode="&#x2020;" horiz-adv-x="376" 
d="M277 -86q-118 0 -179 127q-46 96 -46 223q0 126 101 242q96 108 234 148v-89q-251 -106 -251 -362q0 -62 36 -127q40 -73 92 -73q45 0 79 49l66 -47q-45 -91 -132 -91z" />
    <glyph glyph-name="daggerdbl" unicode="&#x2021;" horiz-adv-x="387" 
d="M333 544q-61 -19 -94 -43q-63 -46 -96 -131q-30 -76 -30 -162q0 -59 37 -126q40 -74 92 -74q42 0 79 51q29 -25 66 -48q-45 -92 -133 -92q-117 0 -178 126q-46 95 -46 223q0 81 45 165q43 80 110 133h-212v85h433v-82q-21 -7 -73 -25z" />
    <glyph glyph-name="circumflex" unicode="&#x2c6;" horiz-adv-x="305" 
d="M247 -73q-118 0 -179 126q-46 95 -46 223q0 179 216 362q-1 58 -25.5 81.5t-83.5 23.5q-16 0 -47.5 -1.5t-47.5 -1.5q-56 0 -94 28q-42 32 -42 86q0 50 34 98l71 -39q-20 -40 -20 -58q0 -34 55 -34q11 0 32 2t32 2q128 0 178 -57q46 -53 46 -183q-220 -149 -220 -369
q0 -62 36 -127q40 -73 93 -73q40 0 79 49q27 -23 65 -47q-45 -91 -132 -91z" />
    <glyph glyph-name="perthousand" unicode="&#x2030;" horiz-adv-x="393" 
d="M331 569q-224 -120 -224 -358q0 -61 36 -127q40 -74 93 -74q40 0 78 50q28 -23 66 -47q-45 -91 -132 -91q-118 0 -179 126q-46 95 -46 224q0 149 157 297h-207v82h266q-2 51 -33 70q-25 16 -79 16q-14 0 -43 -1.5t-43 -1.5q-58 0 -97 28q-45 31 -45 87q0 50 34 98l73 -40
q-22 -39 -22 -57q0 -34 55 -34q11 0 32 1.5t32 1.5q102 0 153 -32q63 -40 68 -136h101v-82h-94z" />
    <glyph glyph-name="Scaron" unicode="&#x160;" horiz-adv-x="276" 
d="M186 565v-641h-88v641h-132v86h130q3 24 3 36q0 52 -120 52q-21 0 -63 -3.5t-63 -3.5q-84 0 -141 28q-74 37 -74 114q0 46 40 112l71 -44q-27 -42 -27 -67q0 -60 154 -60q26 0 76.5 3.5t76.5 3.5q145 0 156 -171h118v-86h-117z" />
    <glyph glyph-name="guilsinglleft" unicode="&#x2039;" horiz-adv-x="128" 
d="M-112 565v86h266v-86h-266zM-39 68l-60 80l34 -10q29 0 50.5 19t21.5 47q0 36 -29.5 64.5t-66.5 26.5l-34 -2v-407h-82v98q-44 86 -96 122q-59 42 -150 39l-50 72q53 57 143 115q105 69 158 69q109 0 187 -44q96 -54 96 -156q0 -112 -122 -133zM-206 316
q-84 -24 -167 -97q96 -18 167 -90v187z" />
    <glyph glyph-name="OE" unicode="&#x152;" horiz-adv-x="187" 
d="M-58 565v86h280v-86h-280zM110 114l-57 58q28 23 28 45q0 37 -52 37q-29 0 -90 -79v-318h-79v68q-57 49 -127 49q-22 0 -64 -8t-64 -8q-74 0 -125 60q-49 57 -49 132q0 55 41 149l66 -44q-23 -58 -23 -118q0 -42 33 -68.5t76 -26.5q22 0 65 8t65 8q57 0 105 -28v256
q0 50 -36 50q-37 0 -73 -41.5t-37 -79.5l8 -28l-56 -55q-36 38 -36 82q0 73 64.5 139.5t137.5 66.5q49 0 79 -38q26 -33 30 -84q51 38 113 38q45 0 75.5 -36.5t30.5 -81.5q0 -66 -49 -104z" />
    <glyph glyph-name="quoteleft" unicode="&#x2018;" 
d="M-215 -98q-287 0 -428 431l81 23q44 -157 122 -252q97 -118 225 -118q132 0 132 75q0 43 -51 55q-26 -15 -74 -15h-26v83q128 6 128 76q0 17 -45.5 32t-73.5 15q-39 0 -71 -16q-41 -20 -41 -55q0 -42 63 -40l-9 -87q-137 18 -137 128q0 71 63 116q56 39 130 39
q70 0 132 -32q74 -39 74 -103q0 -60 -35 -90q58 -41 58 -104q0 -81 -71 -124q-60 -37 -146 -37z" />
    <glyph glyph-name="quoteright" unicode="&#x2019;" 
d="M58 -272q-156 142 -433 303l-75 9v85q76 -9 119 -9q217 0 217 117q0 84 -113 84q-82 0 -121 -121l-82 20q44 184 227 184q71 0 121.5 -48.5t50.5 -118.5q0 -78 -60 -132q-56 -50 -135 -60q146 -82 342 -254z" />
    <glyph glyph-name="quotedblleft" unicode="&#x201c;" horiz-adv-x="518" 
d="M510 489q-8 22 -17 22q-8 0 -76 -25q-47 -10 -74 -10q-127 0 -154 50q-6 11 -6 22q0 25 24 43t50 18t40 -11l1 -1q8 -5 10 -18q2 -17 -14.5 -29t-51.5 -1q11 7 29 19h-2q-18 3 -26 -10q-2 -1 -3 -4q6 -23 53 -23q40 0 104.5 21.5t95.5 21.5t84 -20zM510 403q-4 15 -13 15
q-32 0 -107 -16q-62 -13 -111 -13q-66 0 -127 19q-78 25 -102 71q-7 14 -7 28q0 21 18 41q27 30 69 30q19 0 35 -7q35 -15 31 -41q-4 -28 -54 -35l-3 20q8 2 18 12q-1 2 -7 3q-27 3 -40 -16q-5 -8 -5 -9q7 -30 68 -47q44 -12 88 -12q25 0 38.5 3t83.5 30q51 20 87 20
q40 0 102 -28z" />
    <glyph glyph-name="quotedblright" unicode="&#x201d;" horiz-adv-x="351" 
d="M183 -14q-89 49 -89 129v453h-125v83h409v-83h-202l1 -28q105 -159 287 -165q14 -29 14 -58q0 -119 -87 -222q-91 -109 -208 -109zM176 420l1 -304q0 -35 19 -35q71 0 134 72t63 145q-127 22 -217 122z" />
    <glyph glyph-name="bullet" unicode="&#x2022;" horiz-adv-x="380" 
d="M390 434q-57 0 -112 31q-18 -52 -18 -87q0 -62 35 -62q34 0 58 31q10 13 43 76q131 -65 131 -198q0 -162 -189 -162q-140 0 -232 162q-69 122 -93 292l85 17q5 -126 65 -244q74 -144 185 -144q98 0 98 83q0 44 -24 74q-48 -69 -116 -69q-57 0 -93 38t-36 96q0 91 60 197
h-265v86q72 0 215 2.5t214 2.5q51 0 89 -30.5t38 -81.5t-45 -82q-40 -28 -93 -28zM404 573q-42 0 -83 -40l25 -17q41 -5 45 -5q15 0 34 9.5t19 23.5q0 29 -40 29z" />
    <glyph glyph-name="endash" unicode="&#x2013;" horiz-adv-x="87" 
d="M-9 -29q0 16 -18 61l82 25q25 -58 25 -99q0 -15 -7 -41q87 -68 178 -190l-67 -51q-64 87 -156 166q-71 -67 -149 -67q-46 0 -75 32.5t-29 78.5q0 50 43 82q39 30 90 30q26 0 83 -27zM-92 -86q-28 0 -44 -18l-4 -12q5 -26 41 -26l29 7l20 15l9 16q-27 18 -51 18z" />
    <glyph glyph-name="emdash" unicode="&#x2014;" horiz-adv-x="469" 
d="M381 -13q-172 0 -269 207q-70 149 -84 365l80 -26q10 -169 73 -298q81 -165 214 -165q82 0 131 59q46 55 46 138q0 49 -35 86q-58 -65 -80 -83q-54 -47 -101 -47q-103 0 -103 208q0 25 3 69q3 48 3 68h-280v83h604v-83h-240v-208q0 -33 15 -47l11 -3q27 2 85 72
q40 49 71 97q60 -39 93 -104t33 -126q0 -119 -75 -190.5t-195 -71.5zM384 -217q-35 0 -58 23t-23 58t23 58t58 23t58 -23t23 -58t-23 -58t-58 -23z" />
    <glyph glyph-name="tilde" unicode="&#x2dc;" horiz-adv-x="411" 
d="M482 134q0 -98 30 -200l-80 -14q-35 119 -35 247q0 130 30 212q-150 -29 -274 -248l-70 47v388h-102v85h456v-85h-272v-260q138 170 274 166l41 -1l60 -44q-58 -114 -58 -293z" />
    <glyph glyph-name="trademark" unicode="&#x2122;" horiz-adv-x="608" 
d="M160 563v-146q66 47 118 65q26 10 153 35l42 -46q-20 -89 -20 -128v-51q0 -24 15 -79h-85q-13 63 -13 132q0 31 8 74q-87 -16 -120 -32.5t-116 -90.5l-64 30v237l-102 -2v90h661v-88h-477z" />
    <glyph glyph-name="scaron" unicode="&#x161;" horiz-adv-x="662" 
d="M567 566q26 -53 26 -95q0 -49 -32 -92q-34 -47 -82 -47q-24 0 -108.5 58t-116.5 58q-16 0 -29 -11t-13 -27t31 -30l-47 -58q-65 28 -65 98q0 47 42 78q38 29 86 29q53 0 98 -25q25 -14 80 -60q30 -25 46 -27q29 15 29 56q0 69 -39 95h-499v85h721v-85h-128z" />
    <glyph glyph-name="guilsinglright" unicode="&#x203a;" horiz-adv-x="267" 
d="M322 148v124q-65 134 -134 144q-46 -13 -46 -51q0 -15 31 -47l-56 -47q-61 43 -61 100q0 56 38 91.5t95 35.5q63 0 132 -78v147h-346v84h429v-503h-82z" />
    <glyph glyph-name="oe" unicode="&#x153;" 
d="M-148 -416v101q-85 192 -209 192q-59 0 -59 -61q0 -27 54 -42l-27 -80q-111 37 -111 139q0 53 45 91q42 37 96 37q102 0 211 -128v296h81v-545h-81z" />
    <glyph glyph-name="Ydieresis" unicode="&#x178;" horiz-adv-x="385" 
d="M296 566v-643h-80v120q-38 81 -126 149q-94 72 -185 72l-39 82q169 133 345 184v36h-268v85h470v-85h-117zM210 444q-145 -46 -223 -107q146 -43 223 -151v258z" />
    <glyph glyph-name="exclamdown" unicode="&#xa1;" 
d="M-339 -355v72q-55 86 -177 86l-50 72q103 106 234 169h70v-399h-77zM-339 -60q-67 -36 -101 -63q65 -26 101 -56v119z" />
    <glyph glyph-name="cent" unicode="&#xa2;" 
d="M-330 -32q-113 0 -216 122q-88 104 -117 235h82q36 -108 79 -160q47 -58 145 -103q29 -13 43 -13q64 0 112.5 41.5t48.5 104.5q0 18 -6 42q-41 -46 -59 -60q-37 -29 -79 -29q-41 0 -71.5 29.5t-30.5 70.5q0 81 86 81h17l13 -68q-35 -1 -35 -16q0 -17 22 -17q26 0 74 50
q14 15 78 86q68 -91 68 -178q0 -96 -81 -159q-74 -59 -173 -59z" />
    <glyph glyph-name="sterling" unicode="&#xa3;" 
d="M-196 -128l-1 73q-29 20 -73 23l2 20h2q13 -2 -2 -10l6 -8q-6 -5 -95 -3q-223 0 -223 202q0 34 22 121l78 -24q-18 -73 -18 -94q0 -71 39 -98q31 -21 105 -21q15 0 44 1t44 1q24 0 70 -20v178q-89 -77 -149 -77q-49 0 -87 31.5t-38 80.5q0 37 26.5 64t63.5 27q19 0 40 -9
l-12 -61q-27 1 -36 -8l-2 -16q1 -32 54 -32q21 0 158 128l63 -29v-440h-81z" />
    <glyph glyph-name="currency" unicode="&#xa4;" horiz-adv-x="594" 
d="M145 477q-2 38 -36 88h-133v86h644v-86h-110q23 -43 23 -123q0 -61 -39 -106q-40 -48 -100 -48q-41 0 -128 55.5t-95 55.5q-30 0 -30 -13q0 -20 21 -20q4 0 21 3l-8 -75l-26 -4q-38 0 -65.5 27.5t-27.5 65.5q0 36 27 63q25 24 62 31zM407 562h-205q18 -32 30 -91l72 -56
q47 -35 79 -35q64 0 64 74q0 60 -40 108z" />
    <glyph glyph-name="yen" unicode="&#xa5;" horiz-adv-x="151" 
d="M99 568v-778h-83v78q0 36 -49 72t-89 36q-7 0 -18.5 -7.5t-11.5 -14.5q0 -18 55 -19l-30 -71q-47 0 -76.5 27t-29.5 67q0 44 41 73q37 27 82 27q67 0 123 -52v562h-51v83h221v-83h-84z" />
    <glyph glyph-name="brokenbar" unicode="&#xa6;" 
d="M-140 -258v91q-62 114 -192 113l-34 72q102 105 233 168h70v-444h-77zM-140 89q-65 -32 -109 -72q63 -17 109 -60v132z" />
    <glyph glyph-name="section" unicode="&#xa7;" horiz-adv-x="197" 
d="M141 566v-643h-84v151q0 37 -62 84.5t-103 47.5q-7 0 -18 -7.5t-11 -14.5q0 -23 53 -32l-28 -69q-51 0 -78.5 30t-27.5 74q0 42 33 70q30 25 73 29q-23 42 -27 47q-13 21 -36 40l56 56q66 -60 97 -155q48 -26 77 -58v350h-151v85h321v-85h-84z" />
    <glyph glyph-name="dieresis" unicode="&#xa8;" horiz-adv-x="297" 
d="M253 565q-78 -79 -78 -161q0 -49 18 -146t18 -146q0 -98 -62 -152q-44 -39 -152 -75l-23 81q92 27 123 61.5t31 116.5q0 44 -18 132.5t-18 132.5q0 92 51 156h-168v86h359v-86h-81z" />
    <glyph glyph-name="copyright" unicode="&#xa9;" 
d="M-315 600l-55 64l192 130q105 71 256 136z" />
    <glyph glyph-name="ordfeminine" unicode="&#xaa;" 
d="M-162 -239v75q-49 65 -106 65q-29 0 -86 -13.5t-86 -13.5q-72 0 -124 49.5t-52 120.5q0 29 36 129l77 -21q-29 -81 -29 -97q0 -39 23 -68q25 -32 63 -32q34 0 99.5 12.5t99.5 12.5q46 0 87 -34v181h89v-366h-91z" />
    <glyph glyph-name="guillemotleft" unicode="&#xab;" 
d="M-368 -237v73q-60 68 -133 68q-17 0 -51 -7t-51 -7q-103 0 -164 47q-69 52 -69 152q0 19 25 108l78 -20q-21 -63 -21 -85q0 -74 57 -101q38 -18 122 -18q14 0 42 5.5t42 5.5q68 0 124 -39v160h84v-342h-85z" />
    <glyph glyph-name="logicalnot" unicode="&#xac;" 
d="M-353 -239v38q0 72 -34 82q-21 -5 -25 -23l13 -42l-77 -29q-27 125 -98 125q-70 0 -70 -61q0 -42 71 -50l30 -75q-38 -8 -45 -8q-60 0 -101.5 37.5t-41.5 97.5t47 102t108 42q63 0 112 -54q21 29 68 29q18 0 42 -19v116h92v-308h-91z" />
    <glyph glyph-name="minus" unicode="&#xad;" horiz-adv-x="834" 
d="M401 257h-2v75q0 52 -49 120q-52 73 -99 73q-62 0 -99.5 -34.5t-37.5 -95.5q0 -38 21 -69q23 -34 60 -34q9 0 37 7l-29 -93l-19 -2q-65 0 -111 64q-43 58 -43 125q0 87 53 150q56 68 141 68q106 0 177 -102l1 271h80v-129h380v-85h-374v-500q0 -58 27 -58q74 0 135 101
q57 94 57 176q0 38 -28 38q-17 0 -52 -23l-50 57q64 51 107 51q45 0 76 -42q29 -38 29 -84q0 -116 -76 -230q-85 -127 -196 -127q-55 0 -87 43q-29 38 -29 95v194z" />
    <glyph glyph-name="minus" unicode="&#x2212;" horiz-adv-x="834" 
d="M401 257h-2v75q0 52 -49 120q-52 73 -99 73q-62 0 -99.5 -34.5t-37.5 -95.5q0 -38 21 -69q23 -34 60 -34q9 0 37 7l-29 -93l-19 -2q-65 0 -111 64q-43 58 -43 125q0 87 53 150q56 68 141 68q106 0 177 -102l1 271h80v-129h380v-85h-374v-500q0 -58 27 -58q74 0 135 101
q57 94 57 176q0 38 -28 38q-17 0 -52 -23l-50 57q64 51 107 51q45 0 76 -42q29 -38 29 -84q0 -116 -76 -230q-85 -127 -196 -127q-55 0 -87 43q-29 38 -29 95v194z" />
    <glyph glyph-name="registered" unicode="&#xae;" horiz-adv-x="534" 
d="M429 565q18 -36 18 -78q0 -81 -67 -139.5t-149 -58.5q-60 0 -99 43t-39 103q0 78 49 130h-164v86h589v-86h-138zM328 545l-18 3q-20 0 -68 -19l102 -95q17 25 17 53q0 37 -33 58zM192 489q-16 -27 -16 -52q0 -23 15.5 -42.5t37.5 -19.5t67 19z" />
    <glyph glyph-name="macron" unicode="&#xaf;" horiz-adv-x="652" 
d="M593 567q12 -25 12 -68q0 -56 -36.5 -97.5t-92.5 -41.5q-116 0 -174 126q-46 -146 -122 -146q-34 0 -72 36q-33 30 -49 67q23 27 43 67q33 -53 60 -78l14 -5q23 2 40 47q15 42 15 77q0 5 -1 16h-255l1 84h705v-84h-88zM500 566l-5 2h-144q4 -42 35 -80t72 -38q67 0 67 61
q0 18 -25 55z" />
    <glyph glyph-name="macron" unicode="&#x2c9;" horiz-adv-x="652" 
d="M593 567q12 -25 12 -68q0 -56 -36.5 -97.5t-92.5 -41.5q-116 0 -174 126q-46 -146 -122 -146q-34 0 -72 36q-33 30 -49 67q23 27 43 67q33 -53 60 -78l14 -5q23 2 40 47q15 42 15 77q0 5 -1 16h-255l1 84h705v-84h-88zM500 566l-5 2h-144q4 -42 35 -80t72 -38q67 0 67 61
q0 18 -25 55z" />
    <glyph glyph-name="degree" unicode="&#xb0;" horiz-adv-x="756" 
d="M629 239q42 -51 42 -98q0 -71 -60 -107l-50 -7l7 87q25 -1 25 23q0 37 -43 68q-35 25 -78 35v-395h-82v119q-69 61 -113 88q-54 33 -134 53l-52 63l94 60q-46 32 -97 48l-47 63q121 122 345 186v39h-406v87h807v-87h-318v-39q91 -14 155 -61q76 -57 76 -141
q0 -33 -19.5 -57t-51.5 -27zM561 408q-51 30 -88 34v-120q31 -9 107 -42q4 12 8 35l16 -5q19 1 19 31q0 31 -62 67zM390 441q-156 -45 -227 -107q51 -26 102 -60q40 19 125 49v118zM391 236q-74 -24 -165 -69q91 -37 165 -106v175z" />
    <glyph glyph-name="plusminus" unicode="&#xb1;" horiz-adv-x="574" 
d="M363 568v-9q70 -11 120 -64q53 -56 53 -125q0 -101 -100 -101q-44 0 -91 43l39 76q27 -34 51 -35l17 5l4 16q-1 76 -94 104q-3 -82 -38 -163q-23 -51 -83 -146q-40 -65 -40 -93q0 -29 18 -48t47 -18l29 1q119 56 119 143q0 19 -15 22q-16 -7 -32 -55l-60 64q31 78 88 78
q103 0 103 -125q0 -81 -72 -145t-154 -64q-69 0 -112.5 42t-43.5 111q0 68 75 155q-19 70 -121 106l-19 58q89 126 228 157v10h-298v83h431l1 14q-14 32 -91 32q-17 0 -51 -3t-51 -3q-201 0 -201 121q0 43 30 108l79 -34q-27 -53 -27 -73q0 -41 75 -41q10 0 30.5 1.5
t30.5 1.5h115q135 0 141 -124h111v-83h-241zM157 398q58 -33 81 -79q34 66 39 158q-70 -31 -120 -79z" />
    <glyph glyph-name="twosuperior" unicode="&#xb2;" horiz-adv-x="864" 
d="M802 565v-678h-85v78q-38 57 -95 104q-69 58 -123 58q-39 0 -39 -30q0 -18 12 -18q11 0 41 25l-18 -93l-29 -7q-35 0 -60.5 27t-25.5 62q0 66 56 94q-24 47 -64 76q-21 -65 -90 -65q-71 0 -71 98q0 30 27 50q23 17 55 19q-11 65 -55 78q2 -48 -27 -67.5t-63 -19.5t-60 24
t-26 57q0 53 67 94q-2 10 -5 19q-21 19 -68 19q-14 0 -41 -2t-41 -2v86h919v-86h-91zM446 514v59h-78q29 -58 78 -59zM716 572h-187v-59q49 4 44 4q56 0 97.5 -39.5t41.5 -94.5q0 -47 -25 -81q-29 -38 -74 -38q-14 0 -33 3l-22 98l34 -22l11 -2q28 1 28 35q0 29 -23.5 44
t-53.5 15q-5 0 -25 -3l2 -227q92 -6 185 -115v482zM326 486l2 -3q49 -62 48 -133q44 -20 71 -49l-1 132q-82 9 -120 53zM321 491q-23 29 -47 83l-74 -1q6 -11 9 -23q65 -4 112 -59z" />
    <glyph glyph-name="threesuperior" unicode="&#xb3;" horiz-adv-x="859" 
d="M-32 568v83h920v-83h-920zM711 171q-25 0 -54 26l29 68l32 -10q30 10 30 59q0 27 -15 46t-41 19q-37 0 -81 -33q-2 -41 -31 -68q57 -33 57 -104q0 -82 -70 -133q-63 -47 -147 -47q-144 0 -255 205q-45 84 -134 342l101 -30q122 -426 291 -426q47 0 84 19q45 24 45 67
t-51 55q-23 -14 -73 -14h-29l22 82q110 0 110 94q0 86 -112 86q-48 0 -83 -22q-40 -26 -40 -72q0 -15 42 -35l-44 -64q-80 27 -80 111q0 78 66 125q59 41 139 41q63 0 112 -30q53 -33 70 -90q45 25 100 25q58 0 96 -50q34 -46 34 -105q0 -55 -33 -96t-87 -41z" />
    <glyph glyph-name="acute" unicode="&#xb4;" horiz-adv-x="741" 
d="M654 566v-658h-81q0 94 -77.5 168t-162.5 74q-34 0 -34 -23q0 -14 54 -25l-35 -69q-48 0 -76.5 28t-28.5 70q0 35 24 64t59 32v31q-40 54 -90 69q-34 11 -115 9l-60 80q70 56 123 83q43 22 136 54v13h-320v85h796v-85h-112zM572 571h-200v-15q73 -4 121 -61t48 -131
q0 -44 -23 -77q-26 -36 -69 -36q-57 0 -78 91l64 29q6 -29 15 -34l15 13l5 20q0 43 -28.5 72t-70.5 33v-245q126 -19 201 -126v467zM295 476q-60 -10 -143 -65q96 -4 143 -46v111z" />
    <glyph glyph-name="paragraph" unicode="&#xb6;" horiz-adv-x="864" 
d="M597 566v-91q107 -6 149 -24q83 -35 83 -138q0 -114 -115 -114q-35 0 -72 24l42 73q19 -19 33 -19q31 0 31 38q0 42 -37 63q-30 17 -75 17q-2 0 -39 -2v-470l-85 3v163q-69 146 -175 148q-12 -6 -23 -13q-6 -15 -14 -44q-36 21 -72 46q0 71 104 95v7q0 58 -48 92
q-43 30 -103 30q-24 0 -24 -33q0 -6 2 -26h-26q-39 0 -59 12l-3 24q0 33 19.5 60t51.5 37q-4 28 -41 42h-122v85h918v-85h-300zM513 477v93h-84q5 -90 84 -93zM513 395q-169 30 -175 175h-133q12 -19 15 -38q85 -3 142 -72q54 -66 52 -152q63 -32 101 -82z" />
    <glyph glyph-name="periodcentered" unicode="&#xb7;" horiz-adv-x="816" 
d="M743 564v-731h-84v144q-57 83 -112 83q-36 0 -119.5 -60t-107.5 -60q-79 0 -165 134l72 40q43 -86 97 -86q22 0 66 46q-97 165 -287 218l-53 94q190 118 340 162v16h-419v87h878v-87h-106zM659 563h-185v-19q70 -22 116 -70q52 -54 52 -123q0 -45 -21 -84
q-26 -47 -68 -47q-35 0 -72 48l32 92q17 -51 31 -52l9 2q10 10 10 36q0 70 -89 116v-328q46 10 66 10q76 0 119 -37v456zM392 463q-99 -29 -207 -98q114 -38 207 -159v257z" />
    <glyph glyph-name="periodcentered" unicode="&#x2219;" horiz-adv-x="816" 
d="M743 564v-731h-84v144q-57 83 -112 83q-36 0 -119.5 -60t-107.5 -60q-79 0 -165 134l72 40q43 -86 97 -86q22 0 66 46q-97 165 -287 218l-53 94q190 118 340 162v16h-419v87h878v-87h-106zM659 563h-185v-19q70 -22 116 -70q52 -54 52 -123q0 -45 -21 -84
q-26 -47 -68 -47q-35 0 -72 48l32 92q17 -51 31 -52l9 2q10 10 10 36q0 70 -89 116v-328q46 10 66 10q76 0 119 -37v456zM392 463q-99 -29 -207 -98q114 -38 207 -159v257z" />
    <glyph glyph-name="cedilla" unicode="&#xb8;" horiz-adv-x="702" 
d="M603 240q20 -36 20 -100q0 -71 -59 -115q-53 -39 -126 -39q-12 0 -42 9q-292 93 -380 578l80 17q105 -516 357 -516q88 0 88 90q0 25 -6 38q-36 -6 -46 -6q-42 0 -77 24l24 69q33 -9 55 -9q34 0 59.5 23t25.5 57q0 32 -16.5 71.5t-39.5 63.5l-62 -128q-21 85 -59 133
q-43 55 -93 55q-44 0 -73 -47q36 11 59 11q41 0 71 -23q34 -25 34 -64q0 -41 -43 -97q-4 -5 -78 -86l-60 59q67 63 98 121q-1 7 -17 7q-20 0 -58.5 -9t-58.5 -9q-41 19 -41 58q0 63 48.5 110.5t111.5 47.5q55 0 91 -21q32 -20 65 -67l46 110q159 -184 159 -300
q0 -72 -57 -116z" />
    <glyph glyph-name="onesuperior" unicode="&#xb9;" horiz-adv-x="612" 
d="M528 564v-645h-86q0 24 2 70.5t2 70.5q0 88 -42 153q-48 75 -132 75q-107 0 -127 -103q72 35 113 35q45 0 75 -24q34 -26 34 -70q0 -51 -58 -119q-13 -14 -98 -104l-61 59q70 70 76 77q55 59 62 87q-3 15 -21 15q-19 0 -68.5 -27t-60.5 -27q-34 0 -57.5 29t-23.5 63
q0 74 59 126q51 46 128 60l3 3l2 15q0 27 -42 27q-15 0 -52 -19.5t-56 -19.5q-32 0 -53.5 25t-21.5 57q0 81 58.5 135t140.5 54q143 0 223 -118v241h81l-1 -114h117v-87h-115zM443 287v51q0 79 -69 151t-148 72q-92 0 -113 -101q71 31 100 31q115 0 115 -110q0 -12 -1 -24
q67 -19 116 -70z" />
    <glyph glyph-name="ordmasculine" unicode="&#xba;" horiz-adv-x="997" 
d="M547 566v-257q127 151 312 168l66 -49q-61 -106 -61 -294q0 -98 29 -200l-88 -12q-2 29 -16 127q-10 70 -10 118q0 132 30 212q-150 -29 -275 -251l-70 77v146q-91 218 -226 218q-55 0 -91 -32.5t-33 -86.5q29 15 57 31q36 17 61 17q42 0 73 -26.5t31 -68.5
q0 -58 -48 -122q-4 -6 -92 -105l-63 54l77 89q45 50 45 81q0 22 -25 22q-12 0 -55 -28.5t-57 -28.5q-81 0 -81 96q0 79 57.5 134t136.5 55q71 0 133.5 -37t99.5 -98v136h565v-85h-482z" />
    <glyph glyph-name="guillemotright" unicode="&#xbb;" horiz-adv-x="749" 
d="M523 567v-218q74 16 113 16q67 0 67 -187q0 -24 -2 -67t-2 -63q0 -79 25 -142l-81 -25q-27 111 -27 235q0 21 4 63t4 63q0 18 -8 30q-18 2 -37 2q-34 0 -57 -10l1 -420h-83v89q-84 138 -231 132l-73 92q105 97 302 173v8q-42 115 -75 156q-54 67 -148 67q-41 0 -70.5 -28
t-33.5 -69q27 11 55 22q34 13 57 13q43 0 72 -29.5t29 -72.5q0 -59 -53 -120q-22 -24 -103 -94l-61 56q135 114 135 158q0 8 -7.5 16t-15.5 8q-13 0 -58.5 -27.5t-62.5 -27.5q-38 0 -61 33q-21 29 -21 69q0 84 69 135q62 45 148 45q117 0 207 -119v220h83v-98h249v-84h-249z
M438 238q-105 -42 -175 -88q98 -15 175 -90v178z" />
    <glyph glyph-name="onequarter" unicode="&#xbc;" horiz-adv-x="689" 
d="M611 566q7 -18 7 -38q0 -41 -29 -67.5t-71 -26.5q-80 0 -191 134h-105q11 -15 18 -32q208 -13 214 -173q200 -24 200 -181q0 -37 -21 -72q-24 -39 -67 -52l-37 80q43 11 43 49q0 43 -39 66q-32 18 -78 20v-350h-81v71q-76 118 -235 161l-30 78q127 67 130 68
q73 38 133 60q-4 91 -126 91q-29 0 -61 -11q-41 -14 -41 -38q0 -16 35 -18l-12 -67q-47 0 -76 24t-29 63q0 41 30 70q18 16 66 42q-13 32 -57 49h-126v85h750v-85h-114zM534 568h-107q36 -50 84 -50q20 0 27 6l4 20q0 24 -8 24zM371 270q-41 -11 -129 -57q69 -25 129 -90
v147z" />
    <glyph glyph-name="onehalf" unicode="&#xbd;" horiz-adv-x="613" 
d="M500 566l8 16l9 -13q0 -37 -21 -65q-24 -32 -60 -32q-89 0 -155 98l-53 -4q-5 -16 6 -28q53 -5 93 -48q37 -39 47 -94q75 72 169 119l107 -75q-141 -136 -141 -272q0 -72 59 -228l-85 -27q-60 172 -60 266q0 70 57 189q-18 -15 -41 -35q-106 -124 -111 -128
q-85 -88 -138 -88q-48 0 -80 53q-12 22 -39 94l77 34q21 -89 38 -89q14 0 61 51q42 44 56 67v36q0 40 -32.5 73.5t-72.5 33.5q-19 0 -36 -11.5t-18 -29.5l9 -19l10 -3q21 1 37 41l30 -78q-28 -36 -75 -36q-37 0 -61.5 28t-24.5 65q0 40 25.5 70t65.5 39q-7 17 -19 30h-162
v85h667v-85h-146zM432 567h-74q25 -30 59 -30q8 0 16 10l2 10z" />
    <glyph glyph-name="threequarters" unicode="&#xbe;" horiz-adv-x="1018" 
d="M377 566q28 -70 173 -70q40 0 84 35q86 -107 216 -107q33 0 72 18l81 -89q-61 -73 -78 -116q-19 -48 -19 -138q0 -82 17 -176l-83 -10q-17 94 -17 143v77q0 97 52 200q-15 -2 -32 -2q-109 0 -211 84q-59 -45 -59 -80q0 -44 35 -44q26 0 101 52q92 -45 92 -165
q0 -67 -45 -112t-112 -45q-128 0 -215 129q-42 -56 -120 -56q-151 0 -222 158q-40 88 -64 290l84 13q21 -176 39 -231q43 -125 146 -125q87 0 87 88q0 24 -14 40q-46 -39 -94 -39q-57 0 -93 49q-33 44 -33 103q0 65 58 126h-231v85h1073v-85h-668zM504 410q-143 2 -212 115
q-53 -61 -53 -102q0 -30 36 -30q28 0 100 41q48 -17 75 -78q23 -51 24 -109q77 -130 165 -130q32 0 55 17.5t23 48.5t-14 53q-62 -36 -96 -36q-43 0 -99 49q-27 50 -26 107q8 23 22 54z" />
    <glyph glyph-name="questiondown" unicode="&#xbf;" 
d="M-136 -126h-81l1 68q-57 48 -127 48q-22 0 -64 -7.5t-64 -7.5q-70 0 -120 53t-50 124q0 81 30 149l73 -21q-24 -83 -24 -119q0 -46 32 -74.5t78 -28.5q20 0 59.5 8.5t59.5 8.5q67 0 117 -29v256q0 51 -36 51q-35 0 -72.5 -41.5t-37.5 -76.5q0 -11 12 -28l-60 -61
q-35 42 -35 90q0 73 63.5 136.5t136.5 63.5q54 0 84 -47q26 -39 26 -96z" />
    <glyph glyph-name="Agrave" unicode="&#xc0;" horiz-adv-x="789" 
d="M410 566q14 -47 86 -71q55 -19 116 -19q41 0 75 10l73 -83q-109 -104 -109 -244v-423h-84v104q-18 51 -44 60v-212h-81q0 102 -49 155q-43 45 -146 75l-74 84q57 24 113 63q-129 29 -193 164q-54 113 -55 286h82q10 -370 223 -370q46 0 76 22q34 25 34 69q0 42 -26 70
q-74 -47 -138 -47q-53 0 -89 45q-35 41 -35 95q0 85 91 167h-285v85h854v-85h-415zM600 389q-180 0 -264 136q-41 -38 -55 -56q-27 -36 -27 -72q0 -33 21 -46q29 -5 36 -5q28 0 119 72q108 -62 108 -191q0 -34 -14 -60v-176q23 -9 42 -27q-1 17 -3 79q-1 50 -1 80
q0 161 60 268q-16 -2 -22 -2zM328 -21q38 -20 111 -74l3 141q-59 -30 -114 -67z" />
    <glyph glyph-name="Aacute" unicode="&#xc1;" horiz-adv-x="899" 
d="M421 569l-2 -14q0 -43 23.5 -88t58.5 -71q96 118 205 118q61 0 106 -41.5t45 -102.5q0 -65 -44 -93q41 -35 41 -99q0 -145 -172 -145q-82 0 -160 104q-24 -47 -74.5 -73t-105.5 -26q-39 0 -91 27q-108 58 -162 189q-34 82 -59 247l82 17q0 -142 59 -255q70 -136 184 -136
q46 0 78 35t32 81q0 22 -8 42q-72 -53 -133 -53q-138 0 -138 170q0 42 23 89.5t55 77.5h-289v82h950v-82h-504zM711 427q-79 0 -176 -121q11 -72 57 -125q51 -60 120 -60q59 0 59 57q0 64 -72 64q-17 0 -50 -6l-2 86q72 -2 100.5 12t28.5 42q0 21 -21.5 36t-43.5 15z
M341 519q-70 -61 -70 -134q0 -70 58 -70q49 0 90 46q-53 72 -78 158z" />
    <glyph glyph-name="Acircumflex" unicode="&#xc2;" horiz-adv-x="844" 
d="M669 87q-120 0 -204 156v-318h-80l1 100q-86 79 -119 102q-44 28 -152 69l-58 92q104 68 293 185q-41 86 -131 86q-84 0 -119 -60q-5 -26 -5 -31q0 -18 53 -18l-22 -76q-38 -2 -53 3q-23 7 -39 34q-18 32 -18 72q0 69 62 113q56 39 127 39q117 0 186 -88v165h76v-217
q64 73 72 81q61 59 124 59q62 0 105.5 -40.5t43.5 -101.5q0 -87 -43 -136q44 -44 44 -128q0 -58 -43 -100t-101 -42zM705 301q-26 -17 -60 -17q-42 0 -76 21l14 75q29 -15 49 -15q40 0 70 39q28 36 28 78q0 22 -17.5 39.5t-39.5 17.5q-41 0 -101 -55q-3 -3 -25 -26l-60 -63
q13 -72 59 -139q56 -82 118 -82q27 0 48 20t21 47q0 31 -28 60zM386 401q-120 -76 -202 -131q99 -40 202 -130v261z" />
    <glyph glyph-name="Atilde" unicode="&#xc3;" horiz-adv-x="711" 
d="M649 -320q-154 127 -225 169q-132 79 -257 79l-64 111q80 -12 138 -12q56 0 119 22q74 27 74 67q0 32 -40 55l-3 -1q-44 -76 -195 -76q-56 0 -101 39.5t-45 94.5q0 81 73 126l127 60q63 37 63 101q0 35 -26 57.5t-62 22.5t-72 -27q-39 -29 -39 -64q0 -30 47 -37l-36 -74
q-91 28 -91 104q0 84 71 133q62 44 149 44q44 0 80 -34q32 -30 47 -75q44 57 73 77q42 30 102 30q54 0 86.5 -38.5t32.5 -92.5q0 -56 -37 -99q45 -33 45 -109q0 -49 -35 -80.5t-84 -31.5q-137 0 -203 175q-9 -12 -25 -24q15 -81 46 -109q54 -3 94.5 -49.5t40.5 -101.5
q0 -97 -129 -144q143 -79 310 -222zM575 389q-19 -8 -42 -8q-39 0 -64 17l22 65q35 -1 45 1q21 4 37 25q21 27 21 62q0 17 -12.5 29.5t-29.5 12.5q-63 0 -144 -130q57 -159 152 -159q43 0 43 41q0 30 -28 44zM271 325q-71 -26 -83 -31q-57 -26 -57 -54q0 -30 31 -47
q25 -14 57 -14q46 0 97 44q-27 31 -45 102z" />
    <glyph glyph-name="Adieresis" unicode="&#xc4;" horiz-adv-x="760" 
d="M681 269q13 -16 37 -33q-99 -62 -99 -178q0 -65 41 -150l-61 -67q-38 89 -46 114q-20 62 -20 122q0 84 53 158h-19q-100 -3 -204 157q-71 -102 -71 -151q0 -18 10 -18q37 0 91 53q53 -18 84 -71q28 -48 28 -107q0 -73 -52 -123.5t-126 -50.5q-145 0 -219 158
q-42 89 -73 297l86 -50q11 -116 59 -207q60 -115 150 -115q40 0 65.5 29.5t25.5 69.5q0 33 -19 56q-41 -29 -95 -29q-103 0 -103 131q0 41 60 135q56 88 57 115l-3 16q-24 40 -59 40q-39 0 -73 -29.5t-34 -68.5q0 -14 23 -27l-40 -65q-63 21 -63 88q0 75 56 129.5t131 54.5
q56 0 86 -26q23 -19 49 -75q87 88 207 88q49 0 83.5 -33.5t34.5 -81.5q0 -47 -38 -92q39 -29 39 -86q0 -37 -39 -77zM590 559q-51 0 -100 -28q-54 -30 -68 -76q36 -66 64 -93q42 -41 103 -41q43 0 43 28q0 19 -21 31q-20 -8 -43 -8q-27 0 -55 16l19 73l30 -3q29 0 50 19.5
t21 47.5q0 34 -43 34z" />
    <glyph glyph-name="Aring" unicode="&#xc5;" horiz-adv-x="1023" 
d="M871 42q-38 0 -86 15l1 -363h-86v60q-17 45 -19 49q-12 27 -26 44v-193h-92v96q-79 110 -190 119l-70 85q81 60 224 113q-68 26 -130 26q-23 0 -68 -9.5t-68 -9.5q-97 0 -153 82q-50 73 -50 174q0 45 52 146l74 -36q-42 -77 -42 -114q0 -84 33 -122q36 -41 119 -41
q22 0 66.5 9t66.5 9q83 0 137 -32v390q0 6 -15 17l-12 2q-59 0 -122.5 -69.5t-63.5 -128.5l2 -13l16 -17l-62 -64q-43 44 -43 116q0 85 95 173t181 88q67 0 119 -86l1 -105q97 113 182 113q63 0 103.5 -43t40.5 -106q0 -70 -47 -127q55 -38 55 -115q0 -55 -34 -93.5
t-89 -38.5zM886 231q-31 -19 -61 -19q-31 0 -54.5 21t-23.5 51q0 86 72 86q26 0 63 -14q26 22 26 60q0 25 -18.5 43.5t-43.5 18.5q-67 0 -188 -164q3 -20 2 -50q115 -140 205 -140q48 0 48 62q0 23 -27 45zM696 116l-33 33q1 -95 -4 -206q20 -12 37 -33v206zM564 0
q-74 -24 -126 -52q77 -17 126 -80v132z" />
    <glyph glyph-name="AE" unicode="&#xc6;" horiz-adv-x="587" 
d="M238 565v-297q0 -41 12 -56l21 -4q71 0 123 69q47 63 47 137q0 47 -28 47q-15 0 -52 -27l-47 62q64 49 107 49q54 0 84 -54q24 -44 24 -103q0 -78 -53 -152q39 -52 39 -112q0 -75 -63 -126q-58 -48 -135 -48q-182 0 -307 297l76 34q99 -244 235 -244q40 0 73 20
q39 24 39 61q0 41 -22 57q-69 -52 -128 -52q-62 0 -97 39t-35 102v301h-176v86h491q3 9 5 23q1 5 -17 5q-15 0 -44.5 -4t-44.5 -4q-32 0 -96.5 -6.5t-96.5 -6.5q-70 0 -117 39q-50 41 -50 110q0 44 50 103l69 -47l-32 -48q-2 -17 -2 -24q0 -49 113 -49q33 0 97.5 7t97.5 7
q160 0 160 -105h59v-86h-379z" />
    <glyph glyph-name="Ccedilla" unicode="&#xc7;" horiz-adv-x="1129" 
d="M806 569v-209q0 -16 4 -16q23 0 75 59q43 48 63 82q68 -37 103.5 -97.5t35.5 -129.5q0 -97 -61 -171q-64 -78 -159 -78q-94 0 -165 58q-55 46 -108 139q-25 -57 -76 -97q-56 -43 -115 -43q-169 0 -264 153q-60 95 -110 307l80 20q68 -390 291 -390q61 0 100 53
q36 48 36 111q0 38 -28 86q-33 -40 -82 -71q-57 -35 -101 -35q-72 0 -72 74v195h-284v82h1197v-82h-360zM969 364q-98 -114 -173 -114q-30 0 -52 22.5t-22 52.5l-1 245l-387 1v-164q0 -15 4 -20q41 8 89 53q2 2 87 91q56 -41 76 -102q41 -131 43 -135q25 -61 78 -119
q75 -81 139 -81q67 0 110.5 49t43.5 117q0 43 -35 104z" />
    <glyph glyph-name="Egrave" unicode="&#xc8;" horiz-adv-x="814" 
d="M463 566l-1 -445q0 -20 13 -33l16 -2q75 1 135 105q55 94 55 180q0 28 -25 28q-18 0 -50 -28l-54 60q53 54 107 54q105 0 105 -150q0 -101 -81 -213q-88 -122 -187 -122q-57 0 -90 42q-30 38 -30 96v272q0 35 -62 101t-96 66q-105 0 -105 -110q0 -93 93 -85l28 -76
q-37 -9 -60 -9q-64 0 -106 54q-40 50 -40 115q0 82 51.5 141.5t132.5 59.5q100 0 164 -109v93h315q4 17 4 22q0 15 -28 15q-13 0 -38.5 -2.5t-38.5 -2.5q-32 0 -95.5 -6.5t-95.5 -6.5q-169 0 -169 131q0 46 50 105l69 -47l-32 -48q-2 -17 -2 -24q0 -32 87 -32q31 0 91.5 5.5
t91.5 5.5q111 0 141 -12q57 -23 57 -103h59v-85h-379z" />
    <glyph glyph-name="Eacute" unicode="&#xc9;" horiz-adv-x="668" 
d="M490 567q65 -101 85 -145q39 -83 39 -162q0 -122 -73 -205q-77 -86 -198 -86q-85 0 -145 67q-59 64 -59 150q0 32 7 59q215 58 215 178q0 55 -56 109t-111 54q-39 0 -62.5 -31.5t-23.5 -71.5q0 -102 123 -100l-54 -81q-72 0 -114 58q-38 52 -38 119q0 75 43 127
q46 57 119 57q118 0 198 -100q-6 12 -14 23q-46 67 -58 92q-23 48 -23 107q0 101 88 141l55 -52q-57 -32 -57 -128q0 -25 19 -51l39 -44h265v-84h-209zM506 387q-7 14 -37 65q-12 -103 -76.5 -175.5t-165.5 -102.5q3 -48 37.5 -83.5t82.5 -35.5q92 0 141 74q43 64 43 160
q0 44 -25 98z" />
    <glyph glyph-name="Ecircumflex" unicode="&#xca;" horiz-adv-x="501" 
d="M463 479q-24 -47 -102 -71q-60 -19 -127 -19q-49 0 -111 13q-75 16 -107 16q-10 0 -16 -12l-59 65q62 28 103 28q35 0 87 -20q69 -27 84 -30q12 -3 37 -3q44 0 88 12q60 17 68 47q0 1 -5 10q-13 19 -39 14q-3 0 -8 -2q10 -10 18 -12l-3 -20q-55 3 -55 42q0 19 25 31
q21 10 43 10q43 0 69 -30q17 -19 17 -40q0 -15 -7 -29zM170 476q-26 0 -73 10q-71 25 -76 25q-9 0 -18 -21l-67 64q53 20 85 20q26 0 63 -12q58 -19 62 -20q44 -11 75 -11q46 0 52 23q-1 0 -3 3q-9 13 -26 11h-2q8 -5 47 -29q-88 7 -84 39q2 13 10 19q13 12 41 12
q27 0 50.5 -17.5t23.5 -42.5q0 -11 -6 -23q-26 -50 -154 -50z" />
    <glyph glyph-name="Edieresis" unicode="&#xcb;" horiz-adv-x="722" 
d="M-30 567v84h780v-84h-780zM620 268q31 -38 31 -108q0 -94 -66.5 -153t-161.5 -59q-149 0 -261 212q-43 82 -131 344l82 28q13 -47 48 -146q65 -178 100 -234q78 -121 199 -121q46 0 81 53q31 49 31 101q0 29 -19 41q-36 -11 -86 -15l-17 84q130 -1 130 110q0 35 -35 56
q-29 17 -67 17q-36 0 -88 -31.5t-52 -61.5q0 -34 57 -59l-33 -77q-108 49 -108 136q0 81 87 130q73 42 161 42q72 0 117 -48t45 -120q0 -75 -44 -121z" />
    <glyph glyph-name="Igrave" unicode="&#xcc;" horiz-adv-x="671" 
d="M609 568v-662h-81v68q-94 101 -161 142q-87 53 -205 63l-90 136q66 -7 125 -7q63 0 127 38q70 41 70 96q0 46 -50 94q-15 -20 -38 -43l10 -42l-77 -22q-5 33 -22 90q-17 39 -52 39q-23 0 -38.5 -17t-15.5 -40q0 -25 32 -44l53 -8l-2 -80q-76 0 -118 30q-49 35 -49 100
q0 142 159 142q53 0 90 -67q22 28 62 74q139 -99 139 -215q0 -63 -57 -119q-48 -48 -115 -74q123 -50 218 -142l3 636l84 -1q-4 -49 9 -82h84v-83h-94z" />
    <glyph glyph-name="Iacute" unicode="&#xcd;" 
d="M-248 -36q-95 0 -200 95q-97 87 -134 184q-5 14 -46 135l74 30q19 -60 63 -156q118 -198 252 -198q61 0 105.5 36.5t44.5 96.5q0 41 -25 77q-28 40 -67 40q-28 0 -51 -17q-26 -19 -26 -46q0 -21 25 -50l-64 -52q-43 51 -43 104q0 64 54 103q48 36 114 36q74 0 124 -65
q45 -60 45 -136q0 -98 -75 -160q-70 -57 -170 -57z" />
    <glyph glyph-name="Icircumflex" unicode="&#xce;" horiz-adv-x="669" 
d="M-27 566v85h726v-85h-726zM540 -91q0 145 -107 145q-35 0 -105 -9t-105 -9q-89 0 -139 68q-44 61 -44 152q0 70 20 153l76 -11q-14 -63 -14 -126q0 -152 99 -152q38 0 113 11.5t113 11.5q45 0 88 -33v330q-18 36 -35 36q-42 0 -112 -68t-70 -110q0 -23 19 -23q14 0 44 27
l41 -62q-47 -47 -93 -47q-44 0 -70 33q-24 30 -24 75q0 81 93.5 169.5t175.5 88.5q63 0 114 -107v-543h-78z" />
    <glyph glyph-name="Idieresis" unicode="&#xcf;" horiz-adv-x="663" 
d="M140 566v-217q79 109 216 153l50 -51q-30 -59 -39 -89q-13 -42 -13 -97q0 -3 1 -9q42 57 96 95q40 28 120 66l53 -47q-54 -145 -54 -258q0 -72 38 -209l-88 31q-32 107 -32 235q0 49 24 126q-40 -26 -73 -69q-19 -25 -72 -121l-75 48q-24 66 -24 108q0 62 10 103
q-82 -71 -145 -181l-77 61v322h-85v85h719v-85h-550z" />
    <glyph glyph-name="Eth" unicode="&#xd0;" horiz-adv-x="644" 
d="M556 290q42 -35 42 -99q0 -80 -54.5 -129t-134.5 -49q-251 0 -389 567l87 -16q40 -166 110 -287q96 -168 211 -168q31 0 56 22t25 53q0 17 -7 30q-24 -10 -41 -10q-39 0 -65 24.5t-26 63.5q0 33 22.5 57.5t55.5 24.5q21 0 49 -13l15 12l6 12l1 15q1 23 -42 99l-54 -98
q-35 83 -48 104q-22 36 -61 65l-27 5q-27 0 -46 -22t-19 -50q0 -69 48 -69q10 0 42 10l-33 -86l-29 -1q-54 -2 -85 46q-27 42 -27 98q0 65 44 111.5t109 46.5q87 0 134 -81l50 88l81 -139q47 -82 47 -135q0 -48 -47 -102z" />
    <glyph glyph-name="Ntilde" unicode="&#xd1;" horiz-adv-x="634" 
d="M52 322v109h537v-109h-537z" />
    <glyph glyph-name="Ograve" unicode="&#xd2;" horiz-adv-x="566" 
d="M377 552q-44 0 -73 37q-27 34 -27 79q0 64 41 114q38 46 100 69l22 -43q-69 -47 -80 -94q15 7 30 7q33 0 54 -24t21 -57q0 -36 -26 -62t-62 -26zM162 552q-46 0 -74 36q-26 33 -26 80q0 64 40 114q37 46 99 69l22 -43q-69 -47 -80 -94q15 7 31 7q33 0 54 -23.5t21 -57.5
q0 -36 -25.5 -62t-61.5 -26z" />
    <glyph glyph-name="Oacute" unicode="&#xd3;" horiz-adv-x="592" 
d="M516 624q-36 -46 -100 -74l-22 45q71 40 80 92l-6 -4l-24 -3q-34 0 -55 23.5t-21 57.5q0 36 25.5 62t61.5 26q46 0 73 -34.5t27 -81.5q0 -58 -39 -109zM301 624q-35 -45 -101 -74l-22 45q70 42 80 92q-15 -7 -31 -7q-34 0 -54.5 23.5t-20.5 57.5q0 36 26 62t62 26
q45 0 72.5 -35.5t27.5 -80.5q0 -59 -39 -109z" />
    <glyph glyph-name="Ocircumflex" unicode="&#xd4;" horiz-adv-x="336" 
d="M156 552q-44 0 -73 37q-27 34 -27 79q0 121 139 184l22 -44q-68 -47 -80 -94q15 7 32 7q33 0 53.5 -24t20.5 -57q0 -36 -25.5 -62t-61.5 -26z" />
    <glyph glyph-name="Otilde" unicode="&#xd5;" horiz-adv-x="347" 
d="M278 618q-36 -46 -100 -74l-22 45q69 42 79 93q-15 -8 -31 -8q-33 0 -53.5 23.5t-20.5 57.5q0 36 25.5 62.5t61.5 26.5q45 0 72.5 -35.5t27.5 -81.5q0 -58 -39 -109z" />
    <glyph glyph-name="Odieresis" unicode="&#xd6;" 
d="M-145 -81q-42 112 -183 124l-244 21q-124 42 -124 219q0 19 1 43l51 -1q8 -7 16 -17l7 8q2 6 9 -4q0 1 1 2q-1 -8 -1 -72q0 -86 107 -102q4 -1 229 -26q143 -30 184 -151z" />
    <glyph glyph-name="multiply" unicode="&#xd7;" horiz-adv-x="716" 
d="M570 210q-6 9 -7 63q0 21 -3 34q-31 -13 -74 -29l-2 -354l-82 -2l-1 34q-62 95 -217 158l-12 66l229 151v79q-22 31 -56 31q-49 0 -120 -76t-72 -136h-86v337h-98v85h783v-85h-600v-164q35 41 85 78q60 44 100 44q151 0 147 -156q61 27 93 27q72 0 72 -165
q0 -22 -3 -66.5t-3 -66.5q0 -43 42 -151l-77 -30q-46 126 -46 237v21q0 18 1 27v8q0 5 7 1zM286 162q31 -19 111 -79l1 152z" />
    <glyph glyph-name="Oslash" unicode="&#xd8;" horiz-adv-x="539" 
d="M148 566v-162q91 122 188 122q77 0 142 -85l2 -17v-499h-84l3 28q-43 62 -96 99q-43 31 -123 62l-13 66q129 105 231 151v81q0 14 -23 22q-17 7 -34 7q-47 0 -112 -78q-56 -68 -83 -134h-83l1 337h-91v85h592v-85h-417zM284 166q57 -22 111 -81l2 158q-60 -38 -113 -77z
" />
    <glyph glyph-name="Ugrave" unicode="&#xd9;" horiz-adv-x="633" 
d="M562 566v-643h-85v90q-105 135 -159 135q-22 0 -39 -21l-4 -16q1 -29 28 -29q14 0 40 19l18 -71q-43 -22 -64 -22q-41 0 -70.5 31.5t-29.5 73.5q0 84 108 107q-2 15 -2 35q0 81 27 167q-55 -42 -90 -85q-21 -26 -91 -133h-74v362h-103v85h692v-85h-102zM474 565h-321
v-206q53 69 92 103q50 43 120 72l74 -51q-59 -159 -59 -220q0 -38 10 -56q46 -34 84 -75v433z" />
    <glyph glyph-name="Uacute" unicode="&#xda;" horiz-adv-x="604" 
d="M330 415q23 43 23 78q0 45 -29 75h-350v83h313q-104 139 -104 233q0 91 101 176l52 -68q-70 -51 -70 -111q0 -51 45 -122q17 -27 79 -108h244v-83h-192q97 -141 97 -285q0 -119 -80 -204q-81 -88 -199 -88q-69 0 -123 49t-54 117q0 63 56 108q21 17 101 60q17 48 17 93
q0 22 -21.5 37t-44.5 15q-48 0 -48 -48q0 -21 20 -25l30 9l9 -66q-30 -10 -50 -10q-37 0 -61.5 28t-24.5 65q0 130 133 130q57 0 93.5 -40.5t37.5 -97.5zM445 406q-10 38 -23 63q-14 -92 -66 -150q-42 -49 -132 -95q-56 -28 -56 -47q0 -62 30 -85q26 -19 90 -19q20 0 66 24
q107 55 107 216q0 38 -16 93z" />
    <glyph glyph-name="Ucircumflex" unicode="&#xdb;" horiz-adv-x="750" 
d="M452 568v-233q0 -26 19 -26q30 0 136 164q55 -31 83 -102q24 -61 24 -121q0 -95 -74 -171t-169 -76q-180 0 -294 166q-85 123 -128 328l80 20q50 -197 106 -288q89 -143 232 -143q76 0 122 62q42 56 42 134q0 27 -18 58q-76 -113 -155 -113q-55 0 -77 59q-8 20 -33 99
q-25 48 -81 48q-8 0 -8 -22q0 -6 15 -6q10 0 39 6l-13 -64q-21 -11 -40 -11q-31 0 -54.5 23.5t-23.5 54.5q0 43 28 72t71 29q31 0 91 -50v103h-400v83h808v-83h-328z" />
    <glyph glyph-name="Udieresis" unicode="&#xdc;" horiz-adv-x="680" 
d="M452 566v-157q62 23 104 23q27 0 55 -7l33 -46q-20 -87 -20 -144v-128q0 -29 21 -151l-84 -13q-23 139 -23 322q0 16 12 79q-56 -10 -94 -27l-1 -413h-85l5 82q-76 119 -205 160l-56 74q88 77 221 145q-47 104 -144 104q-52 0 -52 -58q0 -29 93 -32l-61 -71
q-50 0 -85.5 34.5t-35.5 79.5q0 54 40 92t94 38q101 0 189 -102l-2 116h-396v85h739v-85h-262zM373 292q-56 -27 -132 -79q48 -28 70 -43q38 -26 62 -55v177z" />
    <glyph glyph-name="Yacute" unicode="&#xdd;" horiz-adv-x="659" 
d="M608 566v-643h-81v367q-14 32 -38 70q-34 50 -53 50q-11 0 -42 -66q-48 -105 -69 -136q-50 -78 -108 -78q-81 0 -143 122l73 40q34 -68 61 -68q29 0 62 64q-42 141 -127 141q-11 0 -23.5 -9t-12.5 -20q0 -14 49 -20l2 -62q-43 -1 -54 0q-28 4 -48 24q-26 26 -26 68
q0 43 39 70q35 23 80 23q106 0 169 -127q12 26 18 45q-27 57 -99 81q-40 13 -129 22v42h-137v85h720v-85h-83zM524 561h-223q63 -29 91 -78q22 20 42 20q43 0 90 -62v120z" />
    <glyph glyph-name="Thorn" unicode="&#xde;" horiz-adv-x="974" 
d="M620 566v-447q0 -48 27 -48q72 0 134 102q57 93 57 174q0 39 -28 39q-15 0 -51 -24l-50 57q62 51 107 51q46 0 77 -41q28 -37 28 -84q0 -117 -78 -232q-86 -126 -197 -126q-116 0 -116 183q0 17 1.5 50t1.5 50q0 24 -71 126q-71 -76 -236 -243l-60 57q51 53 51 90
q0 26 -14 47.5t-39 21.5q-9 0 -64 -12l-53 53q16 75 88 126t144 51q163 0 254 -148v211h315q4 17 4 23q0 58 -105 58q-33 0 -97.5 -6.5t-97.5 -6.5q-68 0 -115 39q-50 41 -50 108q0 45 50 104l69 -48l-32 -46q-2 -17 -2 -24q0 -24 34 -38q25 -10 53 -10q31 0 91.5 5.5
t91.5 5.5q201 0 198 -163h72v-85h-392zM308 507q-100 0 -141 -58q90 -9 121 -112q53 49 121 122q-64 48 -101 48z" />
    <glyph glyph-name="germandbls" unicode="&#xdf;" horiz-adv-x="754" 
d="M585 564v-223q56 -15 93 -77q35 -58 35 -119q0 -95 -77 -161q-73 -62 -169 -62q-236 0 -425 494l77 30q157 -428 358 -428q61 0 105.5 36.5t44.5 96.5q0 40 -26 78.5t-65 38.5q-29 0 -55 -19t-26 -47q0 -19 22 -47l-54 -54q-46 57 -46 110q0 106 128 132v93
q-14 19 -38 45l-200 -181l-50 54l32 34l8 33q0 19 -13.5 35t-32.5 16q-11 0 -54 -12l-52 54q13 68 71 109q55 39 120 39q112 0 208 -103v191h81v-99h195v-87h-195zM314 585q-66 0 -98 -38q88 -11 107 -90l90 79q-62 49 -99 49z" />
    <glyph glyph-name="agrave" unicode="&#xe0;" horiz-adv-x="678" 
d="M610 564v-644h-82v176q-14 20 -46 53l-199 -220l-76 34l41 51q-1 37 -15 65q-19 37 -52 37q-18 0 -42 -23l-66 27q42 172 141 213q6 16 6 30q0 22 -18.5 38.5t-40.5 16.5q-25 0 -50 -20l-66 40q107 203 266 203q110 0 214 -139v241h88v-92h100v-87h-103zM301 561
q-55 0 -116 -67q9 1 15 1q71 0 94 -99q44 37 116 103q-64 62 -109 62zM530 359q-21 35 -64 76q-56 -51 -105 -91q94 -20 171 -115zM306 267q-74 0 -113 -71q62 5 95 -40q21 -29 27 -67l113 123q-71 55 -122 55z" />
    <glyph glyph-name="aacute" unicode="&#xe1;" horiz-adv-x="801" 
d="M751 566v-643h-81v367q-12 29 -39 69q-34 51 -51 51q-12 0 -44 -68q-50 -107 -73 -141q-53 -79 -111 -79q-68 0 -120 97l67 38l28 -40l15 -7q34 3 79 87q-20 22 -49 48l-186 -175l-75 31l51 54l6 28q0 17 -11.5 30.5t-28.5 13.5q-11 0 -57 -14l-53 54q14 65 73 108
t121 43q134 0 247 -147q13 29 20 50q-26 56 -98 80q-41 14 -129 23v42h-282v85h864v-85h-83zM668 561h-222q61 -27 89 -78q26 22 44 22q44 0 89 -64v120zM227 442q-64 0 -97 -42q78 -5 103 -76q31 31 84 75q-61 43 -90 43z" />
    <glyph glyph-name="acircumflex" unicode="&#xe2;" horiz-adv-x="806" 
d="M316 566h-342v85h858v-85h-381q17 -43 70 -70q47 -24 98 -24q48 0 82 15l72 -70q-74 -137 -74 -286q0 -58 40 -190l-80 -21q-46 155 -46 209q0 153 46 260q-24 -1 -60 -1q-99 0 -193 94v-164l5 -2q27 2 87 69q92 -71 92 -182q0 -192 -227 -192q-84 0 -167 99
q-70 83 -104 187q-25 77 -41 211h84q53 -407 257 -407q50 0 83.5 27.5t33.5 76.5q0 33 -19 54q-39 -35 -89 -35q-31 0 -63 22q-41 59 -64 82q-37 38 -88 56l-39 71q70 58 169 111zM323 484q-38 -17 -68 -42q41 -17 68 -50v92z" />
    <glyph glyph-name="atilde" unicode="&#xe3;" horiz-adv-x="785" 
d="M368 563v-255q127 152 312 169l66 -49q-61 -107 -61 -294q0 -98 29 -200l-79 -14q-35 119 -35 247q0 131 30 213q-106 -20 -185 -119q-52 -64 -78 -160l-82 59q-49 113 -207 174l-48 81q86 69 260 143v5h-314v88h838v-88h-446zM287 470q-89 -38 -142 -76q75 -24 142 -93
v169z" />
    <glyph glyph-name="adieresis" unicode="&#xe4;" horiz-adv-x="723" 
d="M478 564v-213q53 16 63 19q33 8 66 9l51 -62q-14 -135 -14 -179q0 -103 42 -235l-79 -20q-47 155 -47 302l10 92l-90 -20l-1 -411h-83l1 81q-97 105 -245 150l-69 91q42 32 98 67q-47 40 -106 50l-61 63q193 136 379 180l1 36h-420v87h781v-87h-277zM158 349
q57 -21 104 -77q56 29 131 53l1 119q-103 -15 -236 -95zM394 238q-104 -35 -182 -85q117 -52 185 -118z" />
    <glyph glyph-name="aring" unicode="&#xe5;" horiz-adv-x="682" 
d="M-24 566v85h743v-85h-743zM556 -77q-11 73 -41 104q-33 34 -104 34q-22 0 -65 -3t-65 -3q-111 0 -175 60q-67 62 -67 172q0 41 23 115l83 -24q-21 -65 -21 -100q0 -138 169 -138q29 0 86 4.5t86 4.5q35 0 84 -33v253q-116 -96 -199 -96q-64 0 -105 42.5t-41 107.5
q0 43 32.5 74.5t76.5 31.5q53 0 78 -55l-41 -80q-18 52 -29 52t-19 -10t-8 -21q0 -54 62 -54q46 0 106 49q27 22 96 95l74 -34v-548h-76z" />
    <glyph glyph-name="ae" unicode="&#xe6;" horiz-adv-x="234" 
d="M-75 567v84h348v-84h-348zM61 167q-65 0 -98 36q-18 19 -41 81q-22 59 -48 88l58 51q25 -28 42 -77t28 -64q21 -32 58 -32q34 0 56 35q19 31 19 67q0 39 -44 39q-11 0 -20 -10l-4 -14q0 -10 24 -8v-67q-98 0 -98 85q0 44 37 69q32 21 78 21q47 0 76 -45q24 -39 24 -88
q0 -67 -40 -115q-42 -52 -107 -52z" />
    <glyph glyph-name="ccedilla" unicode="&#xe7;" horiz-adv-x="880" 
d="M519 566q4 -19 4 -45q0 -81 -81 -148l-117 -97q140 -55 215 -135v406l60 2q108 4 180 -58q74 -65 74 -172q0 -43 -29 -75.5t-72 -32.5q-65 0 -117 71l67 50q26 -36 46 -36q24 0 24 38q0 56 -48 91q-43 31 -101 34v-536h-78l-1 92q-98 144 -302 191l-51 68l132 105
q-29 14 -83 52q-62 43 -85 43q-19 0 -25 -10l2 -9l46 -4l-32 -75q-32 -1 -44 2q-19 4 -35 25q-23 27 -23 58q0 35 26 61q23 24 59 32l-6 12h-150v85h937v-85h-392zM430 568h-212l3 -19l73 -56q46 -35 78 -35q64 0 64 75q0 13 -6 35z" />
    <glyph glyph-name="egrave" unicode="&#xe8;" 
d="M-345 -318l1 109q-75 176 -189 176q-22 0 -39.5 -16t-17.5 -38q0 -31 58 -56l-23 -71q-120 21 -120 127q0 55 45 94t100 39q101 0 185 -100v101h84v-365h-84z" />
    <glyph glyph-name="eacute" unicode="&#xe9;" horiz-adv-x="762" 
d="M532 566v-195q88 -15 146 -61q68 -55 68 -138q0 -73 -79 -124l-42 70q43 22 43 64q0 75 -132 106v-391h-77v60q-45 86 -97 122q-59 42 -151 39l-50 72q91 107 289 180q-20 52 -59 52q-23 0 -24 -24l13 -43l-72 -26q-39 124 -113 124q-29 0 -51 -16.5t-22 -45.5
q0 -23 16.5 -41t55.5 -18l-39 -78q-120 34 -120 139q0 61 46.5 102t107.5 41q83 0 127 -59q27 33 68 33q30 0 69 -34v90h-479v85h820v-85h-262zM456 289q-97 -27 -170 -93q60 -11 93.5 -29.5t76.5 -64.5v187z" />
    <glyph glyph-name="ecircumflex" unicode="&#xea;" horiz-adv-x="647" 
d="M529 564v-724h-85v196q0 68 -61 117q-58 45 -127 45q-42 0 -74.5 -30.5t-38.5 -72.5q80 39 116 39q45 0 76 -27.5t31 -72.5q0 -42 -40 -90q-10 -12 -75 -76l-62 60q47 37 58 48q34 32 41 62q-3 15 -22 15t-68 -27t-60 -27q-35 0 -58 28t-23 63q0 86 70 140q64 50 152 50
q79 0 164 -83v191q0 17 -17 31.5t-34 16.5l-13 -10l-4 -23l11 -40l-81 -29q-35 122 -110 122q-33 0 -54.5 -21t-21.5 -54q0 -48 81 -49l-27 -76q-140 0 -140 152q0 52 53 94q49 39 102 39q70 0 127 -60q24 41 66 41q36 0 66 -22v64h-474v87h702v-87h-146z" />
    <glyph glyph-name="edieresis" unicode="&#xeb;" horiz-adv-x="898" 
d="M533 566v-430q0 -59 22 -59q77 0 141 100q57 91 57 177q0 38 -28 38q-16 0 -52 -23l-50 57q64 51 107 51q44 0 76 -42q29 -38 29 -83q0 -116 -76 -230q-85 -128 -197 -128q-91 0 -110 110l-7 199q-4 104 -58 123q-23 -7 -28 -33l12 -41l-74 -26q-39 122 -109 122
q-26 0 -45 -17.5t-19 -43.5q0 -47 78 -68l-44 -72q-121 36 -121 143q0 60 48 102t108 42q66 0 115 -56q27 41 73 41q38 0 70 -41v88h-474v85h793q-3 0 -3 25q0 61 -106 61q-33 0 -97.5 -6t-97.5 -6q-68 0 -115 39q-50 41 -50 108q0 45 50 104l69 -48l-32 -46q-2 -17 -2 -24
q0 -23 34 -38q26 -11 53 -11q31 0 91.5 6t91.5 6q200 0 198 -170h74v-85h-395z" />
    <glyph glyph-name="igrave" unicode="&#xec;" horiz-adv-x="831" 
d="M541 568l-2 -252l4 -6q53 17 142 174q112 -129 112 -234q0 -102 -74 -178.5t-176 -76.5q-119 0 -206 76q-67 57 -132 180l101 4q49 -89 91 -126q58 -51 145 -51q69 0 117.5 52.5t48.5 121.5q0 37 -19 79q-78 -107 -157 -107t-79 142q-30 60 -65 72l-8 -3l-18 -22l35 -50
l-64 -50q-22 35 -66 92q-38 39 -83 39q-35 0 -54 -35q-16 -28 -16 -65q0 -31 56 -56l-62 -58q-75 44 -75 138q0 66 49 113.5t116 47.5q54 0 109 -55q37 46 78 46q34 0 69 -32v80h-485v83h890v-83h-322z" />
    <glyph glyph-name="iacute" unicode="&#xed;" horiz-adv-x="647" 
d="M596 567v-665h-86v129q-24 27 -47 47l-200 -182l-50 54l32 35l8 32q0 20 -13 34t-33 14q-15 0 -54 -9l-52 54q14 66 72 109t121 43q116 0 215 -107v234q0 23 -23.5 42t-47.5 21q-31 -19 -32 -48l12 -42l-76 -27q-6 57 -37 90.5t-72 33.5q-30 0 -51 -16.5t-21 -45.5
q0 -50 64 -50q13 0 14 9l-13 27l67 32q23 -36 23 -61q0 -39 -30 -65t-69 -26q-62 0 -103 39t-41 100q0 59 49 101q46 41 106 41q79 0 126 -60q32 54 90 54q36 0 66 -26v55l-538 -1v85h703v-85zM310 181q-66 0 -98 -38q38 -5 68 -29.5t39 -61.5l90 80q-62 49 -99 49z" />
    <glyph glyph-name="icircumflex" unicode="&#xee;" horiz-adv-x="1012" 
d="M669 530q-11 9 3 16q3 1 8 2h54q108 0 178 -65.5t70 -172.5q0 -42 -31 -73t-73 -31q-24 0 -72 20l42 81l31 -15q24 0 24 35q0 59 -46 96q-42 33 -103 36v-536h-78l-2 96q-99 163 -308 210l-46 58q58 38 143 107q-24 17 -71 34q-20 -5 -24 -23l12 -43l-76 -28
q-27 125 -97 125q-30 0 -49 -15q-22 -17 -22 -46q0 -47 71 -49l29 -76q-34 -9 -44 -9q-61 0 -102 37.5t-41 98.5q0 60 47 101.5t108 41.5q67 0 112 -53q21 29 68 29q20 0 50 -15q-32 27 -90 61l-370 1v85h1067v-85h-584v20q41 0 77 -51q16 -23 51 -80v-55q-61 -55 -130 -111
q125 -45 214 -148v389z" />
    <glyph glyph-name="idieresis" unicode="&#xef;" horiz-adv-x="694" 
d="M97 656q-5 5 -5 8q0 8 17 10h58q74 0 124 -71q19 34 62 61l24 5q39 -7 89 -71q11 28 47 98q61 -44 106 -116q47 -77 47 -136q0 -111 -43 -154q18 -45 18 -71q0 -71 -55 -120t-126 -49q-172 0 -302 182q-102 143 -147 347l84 7q25 -158 120 -293q111 -159 240 -159
q35 0 69 25t35 59l-6 24q-19 -6 -45 -6q-44 0 -68 15q6 37 29 97q26 -14 41 -14q72 0 72 110q0 53 -49 94l-46 -110q-31 62 -44 83q-30 48 -64 68q-21 -24 -21 -56q0 -40 25 -40l7 3l15 41l38 -82q-32 -49 -75 -49q-46 0 -71 46q-32 -49 -83 -49q-27 0 -67 30l17 86
q26 -26 41 -33q29 4 29 41q0 85 -137 80v59z" />
    <glyph glyph-name="eth" unicode="&#xf0;" horiz-adv-x="808" 
d="M448 566v-64q52 -69 128 -90q3 -1 122 -32q60 -25 60 -99q0 -106 -112 -231t-219 -124q-26 12 -65 53v417q-28 65 -37 82q-26 46 -59 66q-35 -38 -35 -83q0 -20 25 -47l11 -4q18 1 31 53l39 -84q-29 -50 -82 -50q-44 0 -72 57q-33 -61 -85 -61q-27 0 -67 31l18 87
q23 -25 44 -38q13 2 22 19q8 14 8 29q0 44 -17 64q-12 15 -56 37l-80 2l-20 81h51q107 0 174 -88q35 82 82 82q41 0 102 -76v96h482v-85h-393zM573 334q-96 39 -129 59v-381q59 10 145 103q94 101 94 163q0 10 -110 56z" />
    <glyph glyph-name="ntilde" unicode="&#xf1;" horiz-adv-x="983" 
d="M524 139q85 7 154 46q87 48 87 124q0 83 -68 81l-19 -1q-10 -76 -65 -134q-59 -62 -133 -62q-112 0 -112 172q0 25 3 83q-46 80 -89 108q-38 -39 -38 -71q0 -15 19 -30q19 -4 21 -4q3 0 20 44l37 -82q-32 -50 -74 -50q-48 0 -71 47q-31 -49 -84 -49q-27 0 -67 30l18 87
q28 -31 39 -31q42 0 42 38q0 68 -164 80l-33 76h32l28 1h45q86 0 139 -71q39 66 84 66q52 0 102 -66v80h636v-87h-559v-14q29 -45 68 -59q19 -6 65 -8q37 -1 53 -15q51 4 62 4q67 0 110 -57q38 -52 38 -121q0 -66 -61 -127q-52 -52 -122 -80q122 -47 286 -206l-57 -60
q-210 240 -484 238l7 83q41 1 105 -3zM563 409l-52 6q-33 9 -57 29v-146q12 -21 28 -21q36 0 74 41t38 77q0 8 -31 14z" />
    <glyph glyph-name="ograve" unicode="&#xf2;" horiz-adv-x="906" 
d="M511 568v-133q70 71 92 88q58 46 115 46q60 0 101 -42.5t41 -103.5q0 -67 -51 -115q55 -62 55 -126q0 -141 -141 -141q-106 0 -212 127v-245h-83l-2 88q-65 95 -122 140q-77 62 -171 64l-61 84q41 51 165 151q-69 48 -202 116h-62v85h962v-85zM714 270q-53 0 -93 -12
l-4 80q91 12 110 18q49 18 49 67q0 24 -17.5 42.5t-41.5 18.5q-52 0 -117 -70q-24 -26 -88 -113q113 -175 221 -175q49 0 49 57q0 30 -20 58.5t-48 28.5zM426 568h-218q93 -50 218 -164v164zM425 279q-34 45 -119 119q-69 -52 -115 -104q135 -22 234 -140v125z" />
    <glyph glyph-name="oacute" unicode="&#xf3;" horiz-adv-x="572" 
d="M463 566q19 -53 19 -81q0 -73 -93 -147q-36 -28 -140 -109q-77 -60 -77 -95t61 -35q46 0 116 29q79 33 79 65q0 19 -49 40l42 72q90 -44 90 -112q0 -79 -116 -133q-94 -44 -179 -44q-54 0 -91 33.5t-37 87.5q0 73 104 161q-46 10 -74.5 52t-28.5 91q0 74 57 125h-174v85
h434q-4 48 -64 48q-30 0 -88.5 -4t-88.5 -4q-205 0 -205 115q0 13 22 100l80 -20q-23 -67 -23 -76q0 -45 102 -45q30 0 91 8t91 8q80 0 117 -24q45 -30 48 -106h109v-85h-134zM337 573q-23 0 -54 -13l86 -122q29 27 29 50q0 85 -61 85zM219 519q-47 -33 -47 -80
q0 -32 25 -54.5t58 -22.5q24 0 58 27z" />
    <glyph glyph-name="ocircumflex" unicode="&#xf4;" horiz-adv-x="634" 
d="M441 566q68 -106 94 -168q38 -91 38 -188q0 -103 -61 -188q-66 -94 -165 -94q-92 0 -150 58t-58 151q0 35 16 62q21 8 41 18q-67 40 -72 44q-51 40 -51 91q0 33 27 78q24 41 52 67l-64 69h-117v85h310l-48 42q-37 39 -37 86q0 71 66 158l64 -48l-15 -20q-18 -25 -19 -28
q-11 -20 -11 -45q0 -45 40 -83q2 -4 76 -62h267v-85h-223zM340 564h-137l147 -130q5 23 5 41q0 54 -15 89zM220 446q-63 -67 -63 -89q0 -31 46 -54q2 -2 70 -35q38 36 58 81q-35 35 -111 97zM436 419q-9 -94 -65 -173q-60 -82 -147 -109q2 -126 121 -126q68 0 111 78
q37 66 37 145q0 93 -57 185z" />
    <glyph glyph-name="otilde" unicode="&#xf5;" horiz-adv-x="838" 
d="M389 566q10 -19 10 -58q0 -49 -33 -99l50 -63l-4 -54l-114 -69q111 -39 191 -104v391q71 5 83 5q90 0 155 -39q78 -47 78 -132q0 -48 -29 -88q-31 -45 -78 -45q-29 0 -71 22l5 104l36 -36l14 -4q34 6 41 33q-18 106 -120 101l-30 -2v-510h-83l-1 90q-79 104 -260 141
l-58 78q18 17 151 103l-18 23q-69 -45 -149 -45q-50 0 -86.5 42.5t-36.5 92.5q0 68 63 122h-129v85h903v-85h-480zM268 574q-43 0 -70 -23q35 -32 100 -87q18 19 18 55q0 22 -13.5 38.5t-34.5 16.5zM139 495q-13 -15 -20 -30q-2 -28 -2 -32q2 -15 16 -26q19 -15 41 -15
t63 20z" />
    <glyph glyph-name="odieresis" unicode="&#xf6;" horiz-adv-x="750" 
d="M459 123q54 -11 136 -71l-1 717h84l1 -118h105v-82h-105v-673h-82v54q-65 54 -132 79q-50 19 -150 37l-70 100q70 -3 86 -2q38 3 82 23q61 28 61 69q0 14 -13 38q-77 -86 -158 -86q-31 0 -75 19q-45 43 -45 76q0 56 70 80l46 -50q-21 -14 -35 -30l8 -10q10 -1 21 -1
q39 0 71 22q36 24 36 61l-2 14q-90 5 -136 104q-39 -122 -137 -122q-40 0 -111 84l63 56q41 -57 50 -57q35 0 72 115h-232v82h457q52 0 82 -54q24 -44 24 -100q0 -62 -47 -93q74 -86 74 -156q0 -84 -98 -125zM411 571l-100 1q43 -103 95 -103q40 0 40 40q0 35 -35 62z" />
    <glyph glyph-name="divide" unicode="&#xf7;" horiz-adv-x="976" 
d="M587 565v-497q12 -22 44 -22q80 0 139 98q54 89 54 177q0 39 -28 39q-17 0 -51 -24l-50 58q63 50 106 50q45 0 76 -41q29 -37 29 -84q0 -120 -71 -228q-81 -126 -196 -126q-77 0 -133 74v195q-16 39 -45 78q-37 51 -59 51q-31 0 -68 -58q-8 -14 -55 -94q-43 -61 -96 -61
q-68 0 -157 150l74 41q50 -105 77 -105q21 0 49.5 40t28.5 62q0 87 -71 131q-45 29 -148 51v45h-68v86h866q4 15 4 23q0 56 -105 56q-32 0 -96 -6.5t-96 -6.5q-72 0 -118 38q-50 40 -50 111q0 44 49 103l70 -47l-32 -48q-3 -17 -3 -24q0 -49 113 -49q32 0 97 7t97 7
q71 0 116.5 -46.5t44.5 -117.5h85v-86h-423zM503 563h-299q81 -42 119 -145q36 30 77 30q49 0 103 -67v182z" />
    <glyph glyph-name="oslash" unicode="&#xf8;" 
d="M-167 -61q0 5 1 20.5t1 23.5q0 59 -37 76q-20 -5 -23 -23l12 -43l-72 -26q-32 124 -105 124q-26 0 -46.5 -18t-20.5 -44q0 -43 73 -52l26 -74q-37 -7 -43 -7q-61 0 -102.5 37t-41.5 98q0 57 45 99.5t102 42.5q63 0 121 -60q25 35 66 35q21 0 43 -17v253h80v-445h-79z" />
    <glyph glyph-name="ugrave" unicode="&#xf9;" horiz-adv-x="973" 
d="M603 566q14 -31 14 -72q0 -114 -82 -136q-69 -67 -112 -105q148 -45 214 -111v354q47 2 65 2q107 0 174 -57q75 -65 75 -173q0 -44 -29.5 -76t-72.5 -32q-64 0 -116 71l66 50q26 -36 47 -36q24 0 24 38q0 56 -48 91q-43 31 -101 34v-485h-78l-1 92q-45 66 -134 113
q-80 42 -167 53l-51 67q53 54 112 108q-57 22 -113 115q-35 -76 -45 -91q-41 -61 -104 -61q-34 0 -68 33q-7 6 -52 63l54 57q47 -68 80 -68q23 0 84 162h-269v85h1033v-85h-399zM498 573h-164q29 -73 49 -100q38 -52 94 -52q57 0 57 77q0 15 -36 75z" />
    <glyph glyph-name="uacute" unicode="&#xfa;" horiz-adv-x="537" 
d="M461 569l2 -643h-84v409q0 32 -64 117q-70 -76 -236 -244l-60 57q51 53 51 90q0 69 -54 69q-10 0 -63 -12l-53 53q14 74 89 127q71 50 143 50q158 0 247 -138v238h84v-91h110v-82h-112zM161 562q-100 0 -141 -58q91 -7 121 -112q53 49 120 122q-63 48 -100 48z" />
    <glyph glyph-name="ucircumflex" unicode="&#xfb;" horiz-adv-x="599" 
d="M-29 568v83h654v-83h-654zM632 -213q-151 144 -243 209q-143 100 -291 130l-30 116q110 -51 169 -51q85 0 153 36q83 44 83 123q0 59 -44 103l-89 -120l-59 30q0 45 -21 75q-24 34 -68 34q-38 0 -59 -27t-21 -66q0 -53 89 -51l-41 -84q-131 26 -131 141q0 71 48 118.5
t120 47.5q92 0 142 -87l80 104q138 -85 138 -218q0 -90 -74 -161q-59 -56 -129 -67q83 -46 176 -127q40 -34 159 -149z" />
    <glyph glyph-name="udieresis" unicode="&#xfc;" horiz-adv-x="705" 
d="M-28 565v86h763v-86h-763zM576 -14q-31 81 -31 187q0 83 9 132q-33 -2 -57 -11q-37 -90 -160 -136q198 -114 312 -257l-63 -55q-104 113 -225 201q-154 110 -268 124l-41 106q137 -49 211 -49q63 0 111 36q53 39 53 100q0 45 -43.5 79t-89.5 34q-38 0 -70 -21
q-36 -24 -36 -60q0 -18 26 -41l-59 -55q-50 34 -50 102q0 71 62 116q55 41 129 41q76 0 142.5 -51t72.5 -126q26 6 47 6q42 0 69 -17l17 -42q-14 -79 -14 -140q0 -96 42 -221z" />
    <glyph glyph-name="yacute" unicode="&#xfd;" horiz-adv-x="803" 
d="M-31 565v86h868v-86h-868zM658 192l-51 70q82 20 82 72q0 22 -17.5 39.5t-39.5 17.5q-58 0 -123 -71q-27 -118 -167 -163q192 -109 310 -256l-63 -55q-215 244 -497 334l-37 97q136 -49 188 -49q70 0 124 32q63 38 63 104q0 45 -43.5 79t-89.5 34q-40 0 -71 -21
q-36 -23 -36 -62q0 -17 7 -39l-71 -38q-19 46 -19 80q0 76 60 121q54 42 132 42q64 0 123 -38t79 -96q61 49 122 49q66 0 105 -40.5t39 -106.5q0 -46 -29 -86t-80 -50z" />
    <glyph glyph-name="thorn" unicode="&#xfe;" horiz-adv-x="864" 
d="M46 569v0l-11 -1q-9 0 -63 -2v85h921v-85h-296v-86l89 34q39 -38 71 -78q-14 -58 -14 -115q0 -176 24 -282l-81 -35q-31 198 -31 335q0 49 5 81l-63 -24v-473l-85 3v163q-69 146 -175 148q-21 -9 -42 -47l-68 36q9 46 42 71q29 23 63 26v11q0 55 -50 89q-44 30 -101 30
q-40 0 -40 -64l-76 11l-2 19q0 35 22.5 65t55.5 40q-6 45 -95 45zM513 477v98h-84q6 -95 84 -98zM513 396q-169 29 -175 179h-135l11 -17l5 -26q84 -3 142 -71q55 -65 53 -150q66 -27 101 -78z" />
    <glyph glyph-name="ydieresis" unicode="&#xff;" horiz-adv-x="864" 
d="M597 566v-91q107 -6 149 -24q83 -35 83 -138q0 -114 -115 -114q-35 0 -72 24l42 73q19 -19 33 -19q31 0 31 38q0 42 -37 63q-30 17 -75 17q-2 0 -39 -2v-470l-85 3v163q-69 146 -175 148q-18 -7 -22.5 -13.5t-14.5 -43.5q-36 21 -72 46q0 71 104 95v7q0 58 -48 92
q-43 30 -103 30q-24 0 -24 -33q0 -6 2 -26q-65 0 -85 12l-3 24q0 33 19.5 60t51.5 37q-4 28 -41 42h-132v85h923v-85h-295zM513 477v93h-84q5 -90 84 -93zM513 395q-169 30 -175 175h-133q12 -19 15 -38q85 -3 142 -72q54 -66 52 -152q63 -32 101 -82z" />
    <glyph glyph-name="mu" unicode="&#xb5;" horiz-adv-x="930" 
d="M-30 566v85h989v-85h-989zM844 163l-61 71q28 9 28 30q0 9 -4 30q-23 38 -67 38q-49 0 -102 -55v-355h-77q0 130 -165 130q-18 0 -54.5 -2t-54.5 -2q-127 0 -187 49q-65 54 -65 179q0 48 42 164l64 -49q-27 -84 -27 -144q0 -121 165 -121q26 0 79 4t79 4q65 0 117 -35
v347q0 34 -37 34q-47 0 -106 -61q-46 -47 -75 -103q-2 -20 -2 -28q0 -25 35 -25q6 0 31 3l-34 -87l-22 -1q-43 -3 -71 40q-24 37 -24 81q0 77 97 171t174 94q121 0 121 -164v-17q59 33 119 33q58 0 96.5 -45.5t38.5 -103.5q0 -50 -51 -104z" />
    <glyph glyph-name="mu" unicode="&#x3bc;" horiz-adv-x="930" 
d="M-30 566v85h989v-85h-989zM844 163l-61 71q28 9 28 30q0 9 -4 30q-23 38 -67 38q-49 0 -102 -55v-355h-77q0 130 -165 130q-18 0 -54.5 -2t-54.5 -2q-127 0 -187 49q-65 54 -65 179q0 48 42 164l64 -49q-27 -84 -27 -144q0 -121 165 -121q26 0 79 4t79 4q65 0 117 -35
v347q0 34 -37 34q-47 0 -106 -61q-46 -47 -75 -103q-2 -20 -2 -28q0 -25 35 -25q6 0 31 3l-34 -87l-22 -1q-43 -3 -71 40q-24 37 -24 81q0 77 97 171t174 94q121 0 121 -164v-17q59 33 119 33q58 0 96.5 -45.5t38.5 -103.5q0 -50 -51 -104z" />
    <glyph glyph-name="glyph217" horiz-adv-x="269" 
 />
    <glyph glyph-name="glyph218" horiz-adv-x="269" 
 />
    <glyph glyph-name="uni00A0" unicode="&#xa0;" horiz-adv-x="269" 
 />
    <glyph glyph-name="glyph121" horiz-adv-x="536" 
d="M479 566v-643h-80v117q-30 68 -119 143q-96 83 -166 83q-8 0 -22 -3l-50 82q165 128 352 184v37h-422v85h599v-85h-92zM368 0q-1 -8 -8 -9q-6 -1 -11.5 4.5t-27.5 33.5q-90 116 -174 124l6 60q87 -8 160 -94q59 -69 57 -95zM393 444q-123 -37 -215 -107
q55 -14 117.5 -56.5t97.5 -88.5v252z" />
    <glyph glyph-name="glyph218" horiz-adv-x="269" 
 />
    <glyph glyph-name="glyph219" horiz-adv-x="269" 
 />
    <glyph glyph-name="ch274" horiz-adv-x="269" 
 />
    <glyph glyph-name="ch275" horiz-adv-x="269" 
 />
    <glyph glyph-name="glyph98" horiz-adv-x="1492" 
 />
    <glyph glyph-name="glyph99" horiz-adv-x="1492" 
 />
    <glyph glyph-name="glyph100" horiz-adv-x="1492" 
 />
    <glyph glyph-name="glyph112" horiz-adv-x="1492" 
 />
    <glyph glyph-name="glyph113" horiz-adv-x="1492" 
 />
    <glyph glyph-name="glyph114" horiz-adv-x="1492" 
 />
    <glyph glyph-name="glyph115" horiz-adv-x="1492" 
 />
    <glyph glyph-name="glyph128" horiz-adv-x="1492" 
 />
    <glyph glyph-name="glyph129" horiz-adv-x="1492" 
 />
    <glyph glyph-name="glyph227" horiz-adv-x="335" 
 />
    <glyph glyph-name="glyph228" horiz-adv-x="342" 
 />
    <glyph glyph-name="ch343" horiz-adv-x="342" 
 />
    <glyph glyph-name="ch344" horiz-adv-x="342" 
 />
  </font>
</defs>
</svg>
